<?xml version="1.0" encoding="utf-8"?>
<!-- Generator: Adobe Illustrator 16.0.0, SVG Export Plug-In . SVG Version: 6.00 Build 0)  -->
<!DOCTYPE svg PUBLIC "-//W3C//DTD SVG 1.1//EN" "http://www.w3.org/Graphics/SVG/1.1/DTD/svg11.dtd">
<svg version="1.1" id="Capa_1" xmlns="http://www.w3.org/2000/svg" xmlns:xlink="http://www.w3.org/1999/xlink" x="0px" y="0px"
	 width="96.014px" height="96.014px" viewBox="0 0 96.014 96.014" enable-background="new 0 0 96.014 96.014" xml:space="preserve">
<g>
	<g id="XMLID_1_">
		<g>
			<path fill="#FFFFFF" d="M96.76,84.01c0,4.25,0,8.5,0,12.75c-4.25,0-8.5,0-12.75,0C89.98,94.23,94.22,89.97,96.76,84.01z"/>
			<path fill="#FFFFFF" d="M96.76,0.75c0,4.25,0,8.5,0,12.75C94.23,7.54,89.98,3.28,84.01,0.75C88.2,0.75,92.39,0.75,96.76,0.75z"/>
			<path fill="#0066D4" d="M36.76,53.72c0,7.03,0.01,7.21,7.15,7c3.59-0.109,4.689,0.98,4.64,4.62
				c-0.149,10.47,0.11,20.95,0.21,31.42c-11.75,0-23.51,0-35.26,0C7.54,94.22,3.28,89.98,0.75,84.01c0-23.5,0-47.01,0-70.51
				C3.27,7.52,7.53,3.28,13.5,0.75c23.51,0,47.01,0,70.51,0C89.98,3.28,94.23,7.54,96.76,13.5c0,23.5,0,47.01,0,70.51
				c-2.54,5.96-6.779,10.221-12.75,12.75c-6.75,0-13.5,0-20.25,0c0.09-1.49,0.25-2.97,0.25-4.46c0.03-9.24,0.13-18.479-0.05-27.72
				c-0.07-3.05,1.03-3.96,3.89-3.82c3.11,0.16,6.25,0.181,9.351-0.12c0.92-0.09,2.41-1.439,2.46-2.279
				c0.25-4.46,0.12-8.94,0.12-14.14c-4.3,0-8.25,0.05-12.2-0.04c-1.061-0.02-2.97-0.36-3.021-0.73c-0.3-2.42-0.63-5.01-0.02-7.29
				c0.27-1,2.68-1.89,4.18-2.02c3.55-0.29,7.13-0.09,10.771-0.09c0-5.73,0-10.88,0-16.33c-4.16,0-8.01,0.1-11.86-0.02
				c-5.05-0.16-9.189,1.68-12.72,5.2c-4.92,4.9-6.63,10.98-6.41,17.71c0.08,2.44-0.52,3.59-3.27,3.66c-8.48,0.24-8.47,0.34-8.47,8.7
				C36.76,53.22,36.76,53.47,36.76,53.72z"/>
			<path fill="#FFFFFF" d="M67.58,44.18c3.95,0.09,7.9,0.04,12.2,0.04c0,5.2,0.13,9.68-0.12,14.14c-0.05,0.84-1.54,2.189-2.46,2.279
				c-3.101,0.301-6.24,0.28-9.351,0.12c-2.859-0.14-3.96,0.771-3.89,3.82c0.18,9.24,0.08,18.479,0.05,27.72
				c0,1.49-0.16,2.97-0.25,4.46c-5,0-10,0-15,0c-0.1-10.47-0.359-20.95-0.21-31.42c0.05-3.64-1.05-4.729-4.64-4.62
				c-7.14,0.21-7.15,0.03-7.15-7c0-0.25,0-0.5,0-0.75c0-8.36-0.01-8.46,8.47-8.7c2.75-0.07,3.35-1.22,3.27-3.66
				c-0.22-6.73,1.49-12.81,6.41-17.71c3.53-3.52,7.67-5.36,12.72-5.2c3.851,0.12,7.7,0.02,11.86,0.02c0,5.45,0,10.6,0,16.33
				c-3.641,0-7.221-0.2-10.771,0.09c-1.5,0.13-3.91,1.02-4.18,2.02c-0.61,2.28-0.28,4.87,0.02,7.29
				C64.61,43.82,66.52,44.16,67.58,44.18z"/>
			<path fill="#FFFFFF" d="M0.75,0.75c4.25,0,8.5,0,12.75,0C7.53,3.28,3.27,7.52,0.75,13.5C0.75,9.31,0.75,5.12,0.75,0.75z"/>
			<path fill="#FFFFFF" d="M0.75,84.01C3.28,89.98,7.54,94.22,13.5,96.76c-4.25,0-8.5,0-12.75,0C0.75,92.51,0.75,88.26,0.75,84.01z"
				/>
		</g>
		<g>
		</g>
	</g>
</g>
</svg>
