<?xml version="1.0" encoding="utf-8"?>
<!-- Generator: Adobe Illustrator 16.0.0, SVG Export Plug-In . SVG Version: 6.00 Build 0)  -->
<!DOCTYPE svg PUBLIC "-//W3C//DTD SVG 1.1//EN" "http://www.w3.org/Graphics/SVG/1.1/DTD/svg11.dtd">
<svg version="1.1" id="Capa_1" xmlns="http://www.w3.org/2000/svg" xmlns:xlink="http://www.w3.org/1999/xlink" x="0px" y="0px"
	 width="485.11px" height="485.11px" viewBox="0 0 485.11 485.11" enable-background="new 0 0 485.11 485.11" xml:space="preserve">
<g>
	<g id="XMLID_1_">
		<g>
			<path fill="#FFFFFF" d="M355.31,485.73c25.841,0,49.28-7.631,70.7-21.771c30.431-20.1,49.07-48.42,57.3-83.67
				c1.561-6.7,2.28-13.74,2.29-20.62c0.16-75.82,0.051-151.64,0.131-227.45h1.38c0,118.299,0,236.589,0,354.89
				c-43.931,0-87.87,0-131.801,0V485.73z"/>
			<path fill="#FFFFFF" d="M487.11,1c0,43.74,0,87.48,0,131.22h-1.38c0.029-25-7.04-47.78-20.311-68.81
				c-20.1-31.84-49.03-51.04-85.29-59.79c-3.99-0.97-8.03-1.75-12.05-2.62C407.76,1,447.44,1,487.11,1z"/>
			<path fill="#0066D4" d="M465.42,63.41c13.271,21.03,20.34,43.81,20.311,68.81c-0.08,75.81,0.029,151.629-0.131,227.45
				c-0.01,6.88-0.729,13.92-2.29,20.62c-8.229,35.25-26.869,63.57-57.3,83.67c-21.42,14.14-44.859,21.771-70.7,21.771
				c-0.05,0-0.1,0-0.149,0c-75.49-0.07-150.97,0-226.45-0.051c-17.45-0.01-33.99-4.38-49.7-11.699
				c-18.04-8.41-33.74-19.95-46.53-35.44c-15.01-18.21-25.15-38.55-29.16-61.89c-0.45-2.58-1.53-5.04-2.32-7.57
				c0-83.68,0-167.37,0-251.05c0.94-3.83,1.9-7.66,2.81-11.49C10.75,77.22,25,52.39,48.25,32.85C66.59,17.44,87.24,7.2,110.95,3.27
				c2.74-0.45,5.39-1.5,8.08-2.27c83.02,0,166.03,0,249.05,0c4.02,0.87,8.06,1.65,12.05,2.62
				C416.39,12.37,445.32,31.57,465.42,63.41z M351.65,442.61c19.97,0.08,37.869-5.29,53.67-17.19
				c23.689-17.85,37.1-41.31,37.16-71.51c0.069-36.67,0.01-73.34,0.01-110.021c0-37.5,0.029-75-0.04-112.51
				c0-3.78-0.36-7.6-0.95-11.34c-3.98-25.2-17.2-44.65-37.54-59.53c-17.1-12.52-36.82-16.84-57.479-16.8
				c-72.12,0.1-144.25,0.61-216.371,0.87c-11.66,0.05-22.46,3.25-32.94,7.92c-13.75,6.13-24.98,15.46-34.12,27.33
				c-11.17,14.51-18.28,30.78-18.34,49.22c-0.23,76.51-0.11,153.021-0.04,229.521c0.01,4.109,0.36,8.319,1.3,12.3
				c5.13,21.85,16.32,39.96,34.31,53.55c15.45,11.66,32.71,18.15,52.35,18.12C205.63,442.43,278.64,442.32,351.65,442.61z"/>
			<path fill="#FFFFFF" d="M118.55,239.71c-1.72,74.26,56.24,127.39,121.82,128.86c72.78,1.63,128.04-56.24,128.32-124.98
				c-0.471-70.19-55.74-123.4-121.19-125.03C173.15,116.71,120.05,174.98,118.55,239.71z M405.55,113.35
				c0.16-16.76-13.85-31.76-31.27-30.92c-17.91-1.29-31.83,14.3-31.92,30.01c-0.12,21.21,14.83,32.9,31.52,32.86
				C391.7,145.25,405.37,132.3,405.55,113.35z M346.48,43.71c20.659-0.04,40.38,4.28,57.479,16.8
				c20.34,14.88,33.56,34.33,37.54,59.53c0.59,3.74,0.95,7.56,0.95,11.34c0.069,37.51,0.04,75.01,0.04,112.51
				c0,36.681,0.06,73.351-0.01,110.021c-0.061,30.2-13.471,53.66-37.16,71.51c-15.801,11.9-33.7,17.271-53.67,17.19
				c-73.011-0.29-146.021-0.181-219.021-0.07c-19.64,0.03-36.9-6.46-52.35-18.12c-17.99-13.59-29.18-31.7-34.31-53.55
				c-0.94-3.98-1.29-8.19-1.3-12.3c-0.07-76.5-0.19-153.01,0.04-229.521c0.06-18.44,7.17-34.71,18.34-49.22
				c9.14-11.87,20.37-21.2,34.12-27.33c10.48-4.67,21.28-7.87,32.94-7.92C202.23,44.32,274.36,43.81,346.48,43.71z"/>
			<path fill="#0066D4" d="M374.28,82.43c17.42-0.84,31.43,14.16,31.27,30.92c-0.18,18.95-13.85,31.9-31.67,31.95
				c-16.689,0.04-31.64-11.65-31.52-32.86C342.45,96.73,356.37,81.14,374.28,82.43z"/>
			<path fill="#0066D4" d="M243.19,325.47c45.64-0.04,81.109-37.09,82.21-79.43c1.239-47.5-37.11-83.42-79.73-84.35
				c-47.1-1.02-83.19,37.15-83.99,80.12C160.81,288.37,198.95,325.22,243.19,325.47z M247.5,118.56
				c65.45,1.63,120.72,54.84,121.19,125.03c-0.28,68.74-55.54,126.61-128.32,124.98c-65.58-1.471-123.54-54.601-121.82-128.86
				C120.05,174.98,173.15,116.71,247.5,118.56z"/>
			<path fill="#FFFFFF" d="M245.67,161.69c42.62,0.93,80.97,36.85,79.73,84.35c-1.101,42.34-36.57,79.39-82.21,79.43
				c-44.24-0.25-82.38-37.1-81.51-83.66C162.48,198.84,198.57,160.67,245.67,161.69z"/>
			<path fill="#FFFFFF" d="M1,369.08c0.79,2.53,1.87,4.99,2.32,7.57c4.01,23.34,14.15,43.68,29.16,61.89
				c12.79,15.49,28.49,27.03,46.53,35.44c15.71,7.319,32.25,11.689,49.7,11.699c75.48,0.051,150.96-0.02,226.45,0.051
				c0.05,0,0.1,0,0.149,0v1.38c-118.1,0-236.2,0-354.31,0C1,447.77,1,408.43,1,369.08z"/>
			<path fill="#FFFFFF" d="M3.81,106.54C2.9,110.37,1.94,114.2,1,118.03C1,79.1,1,40.18,1,1c39.34,0,78.68,0,118.03,0
				c-2.69,0.77-5.34,1.82-8.08,2.27C87.24,7.2,66.59,17.44,48.25,32.85C25,52.39,10.75,77.22,3.81,106.54z"/>
		</g>
		<g>
		</g>
	</g>
</g>
</svg>
