<?xml version="1.0" encoding="utf-8"?>
<!-- Generator: Adobe Illustrator 16.0.0, SVG Export Plug-In . SVG Version: 6.00 Build 0)  -->
<!DOCTYPE svg PUBLIC "-//W3C//DTD SVG 1.1//EN" "http://www.w3.org/Graphics/SVG/1.1/DTD/svg11.dtd">
<svg version="1.1" id="Capa_1" xmlns="http://www.w3.org/2000/svg" xmlns:xlink="http://www.w3.org/1999/xlink" x="0px" y="0px"
	 width="192.017px" height="192.017px" viewBox="0 0 192.017 192.017" enable-background="new 0 0 192.017 192.017"
	 xml:space="preserve">
<g>
	<g id="XMLID_1_">
		<g>
			<path fill="#FFFFFF" d="M192.82,0.8c0,28.27,0,56.54,0,84.81c-0.771-3.88-1.46-7.78-2.33-11.64
				C181.82,35.23,149.39,6.11,109.85,1.52c-0.899-0.11-1.76-0.48-2.64-0.72C135.75,0.8,164.28,0.8,192.82,0.8z"/>
			<path fill="#FFFFFF" d="M86.44,16.67c45.05-6.65,85.36,24.11,90.98,69.43c5.021,40.53-26,80.48-66.6,85.95
				C91.77,174.61,74,171.28,57.37,161.57c-1.46-0.851-3.8-1.051-5.45-0.561c-8.91,2.62-17.73,5.55-27.42,8.641
				c3.11-9.181,5.86-17.511,8.78-25.771c0.81-2.3,0.8-4.03-0.67-6.22C0.64,89.84,29.5,25.07,86.44,16.67z M69.86,51.83
				c-5.83-0.2-7.12,0.34-10.46,4.07c-8.32,9.29-9.32,21.27-1.95,34.11c13.44,23.431,32.03,40.74,59.14,46.99
				c4.26,0.98,9,1.12,13.311,0.41c9.88-1.63,16.58-9.53,16.42-18.67c-0.03-1.44-0.971-3.55-2.12-4.16
				c-5.99-3.16-12.17-5.99-18.33-8.83c-2.18-1-4.03-0.5-5.54,1.61c-1.86,2.6-4.04,4.96-5.98,7.489
				c-1.739,2.271-3.699,2.561-6.3,1.471c-11.09-4.62-20.28-11.601-27.28-21.41c-5.13-7.18-5.18-7.2,0.34-13.95
				c2.65-3.24,3.79-6.39,1.59-10.54c-2.24-4.21-3.92-8.74-5.58-13.23C75.71,53.38,73.72,50.82,69.86,51.83z"/>
			<path fill="#2B63AD" d="M59.4,55.9c3.34-3.73,4.63-4.27,10.46-4.07c3.86-1.01,5.85,1.55,7.26,5.36
				c1.66,4.49,3.34,9.02,5.58,13.23c2.2,4.15,1.06,7.3-1.59,10.54c-5.52,6.75-5.47,6.77-0.34,13.95c7,9.81,16.19,16.79,27.28,21.41
				c2.601,1.09,4.561,0.8,6.3-1.471c1.94-2.529,4.12-4.89,5.98-7.489c1.51-2.11,3.36-2.61,5.54-1.61
				c6.16,2.84,12.34,5.67,18.33,8.83c1.149,0.61,2.09,2.72,2.12,4.16c0.16,9.14-6.54,17.04-16.42,18.67
				c-4.311,0.71-9.051,0.57-13.311-0.41c-27.11-6.25-45.7-23.56-59.14-46.99C50.08,77.17,51.08,65.19,59.4,55.9z"/>
			<path fill="#2B63AD" d="M109.85,1.52c39.54,4.59,71.971,33.71,80.641,72.45c0.87,3.86,1.56,7.76,2.33,11.64c0,5.6,0,11.2,0,16.8
				c-0.69,3.76-1.25,7.56-2.08,11.29c-13.55,60.5-79.24,91.689-134.77,64.109c-1.68-0.829-4.14-1.04-5.94-0.51
				c-10.84,3.21-21.6,6.66-32.36,10.15c-5.13,1.66-10.18,3.569-15.27,5.37c-0.53-0.271-1.07-0.54-1.6-0.801
				c5.51-15.96,11.08-31.909,16.43-47.92c0.4-1.199-0.38-3.06-1.1-4.35C-13.13,86.84,14.26,21.05,72.54,4.51
				c5.59-1.58,11.37-2.49,17.07-3.71c5.87,0,11.73,0,17.6,0C108.09,1.04,108.95,1.41,109.85,1.52z M57.37,161.57
				c16.63,9.71,34.4,13.04,53.45,10.479c40.6-5.47,71.62-45.42,66.6-85.95c-5.62-45.32-45.93-76.08-90.98-69.43
				c-56.94,8.4-85.8,73.17-53.83,120.99c1.47,2.189,1.48,3.92,0.67,6.22c-2.92,8.26-5.67,16.59-8.78,25.771
				c9.69-3.091,18.51-6.021,27.42-8.641C53.57,160.52,55.91,160.72,57.37,161.57z"/>
			<path fill="#FFFFFF" d="M55.97,177.81c55.53,27.58,121.22-3.609,134.77-64.109c0.83-3.73,1.39-7.53,2.08-11.29
				c0,30.09,0,60.189,0,90.41c-63.48,0-126.95,0-190.42,0c5.09-1.801,10.14-3.71,15.27-5.37c10.76-3.49,21.52-6.94,32.36-10.15
				C51.83,176.77,54.29,176.98,55.97,177.81z"/>
			<path fill="#FFFFFF" d="M89.61,0.8c-5.7,1.22-11.48,2.13-17.07,3.71C14.26,21.05-13.13,86.84,16.13,139.75
				c0.72,1.29,1.5,3.15,1.1,4.35C11.88,160.11,6.31,176.06,0.8,192.02c0-63.649,0-127.299,0-191.22C30.4,0.8,60,0.8,89.61,0.8z"/>
		</g>
		<g>
		</g>
	</g>
</g>
</svg>
