<?xml version="1.0" encoding="utf-8"?>
<!-- Generator: Adobe Illustrator 16.0.0, SVG Export Plug-In . SVG Version: 6.00 Build 0)  -->
<!DOCTYPE svg PUBLIC "-//W3C//DTD SVG 1.1//EN" "http://www.w3.org/Graphics/SVG/1.1/DTD/svg11.dtd">
<svg version="1.1" id="Capa_1" xmlns="http://www.w3.org/2000/svg" xmlns:xlink="http://www.w3.org/1999/xlink" x="0px" y="0px"
	 width="360.19px" height="488.341px" viewBox="0 0 360.19 488.341" enable-background="new 0 0 360.19 488.341"
	 xml:space="preserve">
<g>
	<g id="XMLID_1_">
		<g>
			<path fill="#0066FF" d="M359.94,384.2c-1.41,0-2.521,0-3.631,0c-53.71,0-107.42-0.03-161.13,0.069
				c-3.069,0.01-3.84-0.68-3.819-3.79c0.149-22.899,0.109-45.79,0.029-68.689c0-2.28,0.62-3.88,2.261-5.511
				c23.06-22.97,46.09-45.979,69.02-69.08c2-2.02,3.25-2.4,5.74-0.72c18.53,12.52,37.17,24.88,55.78,37.27
				c1.47,0.98,2.63,2.03,3.18,3.84c10.68,34.92,21.42,69.82,32.14,104.729C359.65,382.779,359.73,383.26,359.94,384.2z
				 M278.89,337.689c1.851,0.03,2.62-0.41,2.58-2.449c-0.14-5.811-0.149-11.62,0-17.431c0.051-2.16-0.66-2.68-2.729-2.67
				c-13.23,0.09-26.46,0.08-39.7,0.01c-2-0.01-2.83,0.4-2.78,2.62c0.15,5.681,0.17,11.38,0,17.061c-0.069,2.35,0.7,2.92,2.931,2.88
				c6.56-0.141,13.109-0.05,19.67-0.05C265.54,337.66,272.21,337.6,278.89,337.689z"/>
			<path fill="#0066FF" d="M326.37,176.89c0.01,2.49-0.46,3.37-3.17,3.33c-13-0.15-25.99-0.13-38.99-0.01
				c-2.31,0.03-2.85-0.6-2.84-2.87c0.08-28.1,0.07-56.19,0-84.28c0-2.23,0.49-3,2.85-2.91c5.19,0.19,10.4-0.11,15.59,0.12
				c2.69,0.12,2.721-0.98,2.351-3.02c-5.47-30.23-30.33-55.97-60.39-62.52c-6.311-1.38-12.69-2.05-19.131-2.05
				c-28.35-0.03-56.689-0.1-85.03,0.01c-39.27,0.15-70.69,25.43-79.26,63.48c-0.7,3.1-0.5,4.39,3.22,4.12
				c4.92-0.36,9.9,0.01,14.84-0.13c2.01-0.06,2.47,0.63,2.47,2.53c-0.05,28.34-0.06,56.68,0,85.02c0.01,1.92-0.5,2.5-2.46,2.49
				c-13.37-0.08-26.73-0.09-40.1,0c-2.05,0.02-2.41-0.73-2.41-2.57c0.05-28.34-0.97-56.73,0.48-85c0.68-13.2,5.29-26.41,12.06-38.36
				C63.9,23.51,89.87,5.38,125.14,0.93c0.5-0.07,0.97-0.11,1.15-0.68c35.65,0,71.29,0,106.94,0c4.89,0.95,9.81,1.75,14.659,2.88
				c39.83,9.31,70.73,43.57,77.021,83.99c1.26,8.11,1.25,16.04,1.33,24.05C326.46,133.08,326.271,154.98,326.37,176.89z"/>
			<path fill="#FEFEFE" d="M281.47,335.24c0.04,2.039-0.729,2.479-2.58,2.449c-6.68-0.09-13.35-0.029-20.029-0.029
				c-6.561,0-13.11-0.091-19.67,0.05c-2.23,0.04-3-0.53-2.931-2.88c0.17-5.681,0.15-11.38,0-17.061c-0.05-2.22,0.78-2.63,2.78-2.62
				c13.24,0.07,26.47,0.08,39.7-0.01c2.069-0.01,2.78,0.51,2.729,2.67C281.32,323.62,281.33,329.43,281.47,335.24z"/>
			<path fill="#0066FF" d="M258.79,89.81c0.01,28.34,0.94,56.69-0.34,85c-1.65,36.44-31.271,67.56-67.59,72.1
				c-40.67,5.09-77.42-19.89-87.23-59.28c-1.6-6.4-2.2-12.91-2.24-19.48c-0.05-9.9,0.09-19.8-0.07-29.7
				c-0.05-2.67,0.8-3.24,3.33-3.23c24.99,0.09,49.99,0.28,74.98,0c27.28-0.32,49.101-11.65,65.13-33.81
				c5.471-7.56,8.66-16.18,11.16-25.61C258.3,80.51,258.79,85.17,258.79,89.81z M215.44,173.39c0.22-2.63-0.04-4.02-3.32-3.81
				c-5.05,0.32-10.14,0.21-15.2,0.03c-2.52-0.09-3.79,0.36-4.43,3.2c-1.13,4.97-5.32,8.1-10.08,8.41c-4.13,0.26-9.4-2.21-10.3-6.41
				c-1.2-5.62-4.54-5.54-8.69-5.16c-1.23,0.11-2.47,0.02-3.71,0.02c-2.84,0-5.7,0.15-8.52-0.05c-2.49-0.18-3.1,0.58-2.9,3.09
				c1.63,20.35,21.7,34.94,41.52,30.06C203.45,199.41,214.29,186.93,215.44,173.39z"/>
			<path fill="#0066FF" d="M236.021,53.86c2.239,29.33-21.53,56.98-50.951,58.47c-13.32,0.68-26.71,0.12-40.06,0.12
				c0,0.09,0,0.18,0,0.26c-13.36,0-26.72-0.1-40.07,0.08c-3.07,0.04-3.74-0.95-3.61-3.76c0.45-9.49-0.82-19.06,1.15-28.49
				c4.05-19.26,21.2-34.54,40.8-34.98c24.48-0.56,48.979-0.19,73.46-0.1c5.89,0.02,11.38,1.97,16.7,4.44
				C235.271,50.75,235.87,51.91,236.021,53.86z"/>
			<path fill="#FEFEFE" d="M212.12,169.58c3.28-0.21,3.54,1.18,3.32,3.81c-1.15,13.54-11.99,26.02-25.631,29.38
				c-19.819,4.88-39.89-9.71-41.52-30.06c-0.2-2.51,0.41-3.27,2.9-3.09c2.82,0.2,5.68,0.05,8.52,0.05c1.24,0,2.48,0.09,3.71-0.02
				c4.15-0.38,7.49-0.46,8.69,5.16c0.9,4.2,6.17,6.67,10.3,6.41c4.76-0.31,8.95-3.44,10.08-8.41c0.64-2.84,1.91-3.29,4.43-3.2
				C201.98,169.79,207.07,169.9,212.12,169.58z"/>
			<path fill="#0066FF" d="M198.39,268.99c0.41,0.77-0.31,1.1-0.699,1.5c-5.4,5.43-10.83,10.84-16.23,16.27
				c-0.76,0.77-1.35,1.31-2.39,0.25c-6.04-6.11-12.13-12.17-18.88-18.92c9.73,1.87,18.56,2.51,27.46,1.73
				c2.949-0.26,5.87-0.73,8.81-1.11C197.13,268.63,197.89,268.02,198.39,268.99z"/>
			<path fill="#0066FF" d="M168.85,381.02c0.01,2.07-0.01,3.26-2.82,3.25c-54.7-0.1-109.41-0.08-164.11-0.08
				c-0.49,0-0.98-0.09-1.67-0.149c4.25-15.95,8.85-31.69,13.9-47.29c6.49-20.07,13.15-40.08,22.89-58.9
				c1.12-2.15,2.54-3.78,4.57-5.14c17.28-11.51,34.52-23.07,51.7-34.72c2.16-1.47,3.39-1.72,5.46,0.37
				c22.58,22.76,45.27,45.41,67.98,68.03c1.53,1.521,2.12,3.05,2.12,5.19C168.8,334.729,168.81,357.87,168.85,381.02z"/>
		</g>
		<g>
		</g>
	</g>
</g>
<g>
	<path fill="#0066FF" d="M93.083,429.848h-9.041l-1.256,4.254h-8.13l9.686-25.77h8.686l9.684,25.77h-8.339L93.083,429.848z
		 M91.431,424.275l-2.844-9.264l-2.814,9.264H91.431z"/>
	<path fill="#0066FF" d="M100.953,408.332h24.205v6.363h-8.121v19.406h-7.963v-19.406h-8.121V408.332z"/>
	<path fill="#0066FF" d="M128.744,408.332h21.34v5.502h-13.359v4.096h12.393v5.256h-12.393v5.08h13.746v5.836h-21.727V408.332z"/>
	<path fill="#0066FF" d="M154.812,408.332h7.436l9.703,14.257v-14.257h7.506v25.77h-7.506l-9.65-14.149v14.149h-7.488V408.332z"/>
	<path fill="#0066FF" d="M201.903,423.555l6.979,2.109c-0.469,1.957-1.207,3.592-2.215,4.904s-2.258,2.303-3.752,2.971
		s-3.396,1.002-5.705,1.002c-2.801,0-5.088-0.407-6.863-1.221c-1.775-0.814-3.309-2.245-4.597-4.295
		c-1.289-2.05-1.934-4.673-1.934-7.87c0-4.263,1.134-7.539,3.402-9.828c2.268-2.29,5.475-3.435,9.623-3.435
		c3.246,0,5.799,0.656,7.656,1.969s3.236,3.328,4.139,6.047l-7.031,1.564c-0.246-0.785-0.504-1.359-0.773-1.723
		c-0.445-0.609-0.99-1.078-1.635-1.406s-1.365-0.492-2.162-0.492c-1.805,0-3.188,0.726-4.148,2.177
		c-0.727,1.077-1.09,2.769-1.09,5.074c0,2.856,0.434,4.813,1.301,5.873s2.086,1.589,3.656,1.589c1.523,0,2.676-0.428,3.455-1.283
		S201.552,425.184,201.903,423.555z"/>
	<path fill="#0066FF" d="M213.065,408.332h7.98v25.77h-7.98V408.332z"/>
	<path fill="#0066FF" d="M225.757,421.234c0-4.207,1.172-7.482,3.516-9.826s5.607-3.516,9.791-3.516
		c4.289,0,7.594,1.151,9.914,3.454s3.48,5.528,3.48,9.677c0,3.012-0.506,5.481-1.52,7.409s-2.479,3.428-4.395,4.5
		s-4.305,1.608-7.164,1.608c-2.906,0-5.311-0.463-7.215-1.389s-3.449-2.391-4.633-4.395S225.757,424.246,225.757,421.234z
		 M233.72,421.27c0,2.602,0.484,4.471,1.451,5.607s2.281,1.705,3.945,1.705c1.711,0,3.035-0.557,3.973-1.67s1.406-3.111,1.406-5.994
		c0-2.426-0.488-4.198-1.467-5.317s-2.307-1.679-3.982-1.679c-1.605,0-2.895,0.568-3.867,1.705S233.72,418.645,233.72,421.27z"/>
	<path fill="#0066FF" d="M256.8,408.332h7.436l9.703,14.257v-14.257h7.506v25.77h-7.506l-9.65-14.149v14.149H256.8V408.332z"/>
	<path fill="#0066FF" d="M11.902,451.532h13.236c2.883,0,5.042,0.686,6.478,2.057s2.153,3.322,2.153,5.854
		c0,2.602-0.782,4.635-2.347,6.1s-3.952,2.197-7.163,2.197H19.9v9.563h-7.998V451.532z M19.9,462.519h1.951
		c1.535,0,2.613-0.267,3.234-0.8s0.932-1.216,0.932-2.048c0-0.809-0.27-1.494-0.809-2.057s-1.553-0.844-3.041-0.844H19.9V462.519z"
		/>
	<path fill="#0066FF" d="M37.917,451.532h21.34v5.502H45.898v4.096h12.393v5.256H45.898v5.08h13.746v5.836H37.917V451.532z"/>
	<path fill="#0066FF" d="M64.039,477.302v-25.77H77.31c2.461,0,4.342,0.211,5.643,0.633s2.35,1.204,3.146,2.347
		s1.195,2.534,1.195,4.175c0,1.43-0.305,2.663-0.915,3.7s-1.448,1.878-2.515,2.522c-0.68,0.41-1.612,0.75-2.796,1.02
		c0.948,0.317,1.639,0.634,2.073,0.95c0.293,0.211,0.717,0.663,1.273,1.354c0.556,0.692,0.928,1.226,1.115,1.602l3.856,7.467h-8.998
		l-4.256-7.875c-0.539-1.02-1.02-1.682-1.441-1.986c-0.574-0.398-1.225-0.598-1.951-0.598h-0.703v10.459H64.039z M72.037,461.974
		h3.357c0.363,0,1.066-0.117,2.109-0.352c0.527-0.105,0.958-0.375,1.292-0.809s0.501-0.932,0.501-1.494
		c0-0.832-0.264-1.471-0.791-1.916s-1.518-0.668-2.971-0.668h-3.498V461.974z"/>
	<path fill="#0066FF" d="M90.546,468.776l7.576-0.475c0.164,1.23,0.498,2.168,1.002,2.813c0.82,1.043,1.992,1.564,3.516,1.564
		c1.137,0,2.013-0.267,2.628-0.8s0.923-1.151,0.923-1.854c0-0.668-0.293-1.266-0.879-1.793s-1.945-1.025-4.078-1.494
		c-3.492-0.785-5.982-1.828-7.471-3.129c-1.5-1.301-2.25-2.959-2.25-4.975c0-1.324,0.384-2.575,1.151-3.753s1.922-2.104,3.463-2.777
		s3.653-1.011,6.337-1.011c3.293,0,5.804,0.612,7.532,1.837s2.757,3.173,3.085,5.845l-7.506,0.439
		c-0.199-1.16-0.618-2.004-1.257-2.531s-1.521-0.791-2.646-0.791c-0.926,0-1.623,0.196-2.092,0.589s-0.703,0.87-0.703,1.433
		c0,0.41,0.193,0.779,0.58,1.107c0.375,0.34,1.266,0.656,2.672,0.949c3.48,0.75,5.974,1.509,7.479,2.276s2.602,1.72,3.287,2.856
		s1.028,2.408,1.028,3.814c0,1.652-0.457,3.176-1.371,4.57s-2.191,2.452-3.832,3.173s-3.709,1.081-6.205,1.081
		c-4.383,0-7.418-0.844-9.105-2.531S90.769,471.378,90.546,468.776z"/>
	<path fill="#0066FF" d="M116.931,464.435c0-4.207,1.172-7.482,3.516-9.826s5.607-3.516,9.791-3.516
		c4.289,0,7.594,1.151,9.914,3.454s3.48,5.528,3.48,9.677c0,3.012-0.507,5.481-1.521,7.409s-2.479,3.428-4.395,4.5
		s-4.304,1.608-7.163,1.608c-2.906,0-5.312-0.463-7.216-1.389s-3.448-2.391-4.632-4.395S116.931,467.446,116.931,464.435z
		 M124.894,464.47c0,2.602,0.483,4.471,1.45,5.607s2.282,1.705,3.946,1.705c1.711,0,3.035-0.557,3.973-1.67s1.406-3.111,1.406-5.994
		c0-2.426-0.489-4.198-1.468-5.317s-2.306-1.679-3.981-1.679c-1.605,0-2.895,0.568-3.867,1.705S124.894,461.845,124.894,464.47z"/>
	<path fill="#0066FF" d="M147.974,451.532h7.436l9.703,14.257v-14.257h7.506v25.77h-7.506l-9.65-14.149v14.149h-7.488V451.532z"/>
	<path fill="#0066FF" d="M193.401,473.048h-9.041l-1.256,4.254h-8.13l9.686-25.77h8.685l9.684,25.77h-8.338L193.401,473.048z
		 M191.749,467.476l-2.844-9.264l-2.815,9.264H191.749z"/>
	<path fill="#0066FF" d="M205.56,451.532h7.963v19.424h12.428v6.346H205.56V451.532z"/>
	<path fill="#0066FF" d="M229.888,451.532h7.98v25.77h-7.98V451.532z"/>
	<path fill="#0066FF" d="M242.931,451.532h22.535v5.15l-14.465,15.082h14.992v5.537h-24.451v-5.344l14.314-14.924h-12.926V451.532z"
		/>
	<path fill="#0066FF" d="M285.423,473.048h-9.041l-1.256,4.254h-8.131l9.686-25.77h8.686l9.684,25.77h-8.338L285.423,473.048z
		 M283.771,467.476l-2.844-9.264l-2.814,9.264H283.771z"/>
	<path fill="#0066FF" d="M297.687,451.532h11.83c2.332,0,4.217,0.316,5.652,0.949s2.621,1.541,3.559,2.725s1.617,2.561,2.039,4.131
		s0.633,3.234,0.633,4.992c0,2.754-0.313,4.89-0.939,6.407s-1.498,2.789-2.611,3.814s-2.309,1.708-3.586,2.048
		c-1.746,0.469-3.328,0.703-4.746,0.703h-11.83V451.532z M305.649,457.368v14.08h1.951c1.664,0,2.848-0.185,3.551-0.554
		s1.254-1.014,1.652-1.934s0.598-2.411,0.598-4.474c0-2.73-0.445-4.6-1.336-5.607s-2.367-1.512-4.43-1.512H305.649z"/>
	<path fill="#0066FF" d="M339.88,473.048h-9.041l-1.256,4.254h-8.131l9.686-25.77h8.686l9.684,25.77h-8.338L339.88,473.048z
		 M338.228,467.476l-2.844-9.264l-2.814,9.264H338.228z"/>
</g>
</svg>
