<?xml version="1.0" encoding="UTF-8"?>
<!DOCTYPE svg  PUBLIC '-//W3C//DTD SVG 1.1//EN'  'http://www.w3.org/Graphics/SVG/1.1/DTD/svg11.dtd'>
<svg width="210mm" height="297mm" clip-rule="evenodd" fill-rule="evenodd" image-rendering="optimizeQuality" shape-rendering="geometricPrecision" text-rendering="geometricPrecision" version="1.1" viewBox="0 0 21000 29700" xml:space="preserve" xmlns="http://www.w3.org/2000/svg">
 <defs>
  <style type="text/css">
   <![CDATA[
    .fil2 {fill:none}
    .fil0 {fill:black}
    .fil1 {fill:black;fill-rule:nonzero}
   ]]>
  </style>
 </defs>
  <path class="fil0" d="m9e3 15072v828c-126 94-200 243-200 400 0 276 224 500 500 500s500-224 500-500c0-157-74-306-200-400v-1600l-600 772z"/>
  <polygon class="fil0" points="8400 14550 8700 14850 8100 14850"/>
  <polygon class="fil0" points="10200 14850 10500 14550 9900 14550"/>
  <path class="fil1" d="m9650 15876c60 49 108 110 142 178 38 76 58 160 58 246 0 152-62 289-161 389-100 100-237 161-389 161s-289-62-389-161c-100-100-161-237-161-389 0-86 20-170 58-246 34-68 82-129 142-178v-2776c0-97 39-184 103-247 63-63 151-103 247-103 97 0 184 39 247 103 63 63 103 151 103 247v2776zm53 223c-31-62-76-116-133-159l-20-15v-2825c0-69-28-132-73-177s-108-73-177-73-132 28-177 73-73 108-73 177v2825l-20 15c-57 43-102 97-133 159-31 61-47 130-47 201 0 124 50 237 132 318 81 81 194 132 318 132s237-50 318-132c81-81 132-194 132-318 0-71-17-140-47-201z"/>
  <polygon class="fil1" points="8100 15550 8576 15550 9961 13769 9976 13750 1e4 13750 10500 13750 10500 13850 10024 13850 8639 15631 8624 15650 8600 15650 8100 15650"/>
  <rect class="fil2" x="8e3" y="12700" width="2600" height="4200"/>
  <path class="fil0" d="m9245 16340l-77-76 77-78v154zm78 78l-78-78 78-76v154zm76 0l-76-78 76-76v154zm-154-154l78-78 76 78h-154zm54-142c99 0 179 80 179 178 0 99-81 179-179 179-99 0-179-80-179-179 0-98 80-178 179-178zm0-22c110 0 200 89 200 200s-89 200-200 200c-110 0-200-89-200-200 0-110 90-200 200-200z"/>
</svg>
