<?xml version="1.0" encoding="utf-8"?>
<!-- Generator: Adobe Illustrator 16.0.0, SVG Export Plug-In . SVG Version: 6.00 Build 0)  -->
<!DOCTYPE svg PUBLIC "-//W3C//DTD SVG 1.1//EN" "http://www.w3.org/Graphics/SVG/1.1/DTD/svg11.dtd">
<svg version="1.1" id="Capa_1" xmlns="http://www.w3.org/2000/svg" xmlns:xlink="http://www.w3.org/1999/xlink" x="0px" y="0px"
	 width="63.87px" height="118.683px" viewBox="0 0 63.87 118.683" enable-background="new 0 0 63.87 118.683" xml:space="preserve">
<g>
	<path fill-rule="evenodd" clip-rule="evenodd" fill="#FFFFFF" d="M16.792,65.193c0,18.584,0,36.621,0,54.489
		c8.014,0,15.402,0,23.211,0c0-18.324,0-36.238,0-54.345c8.001,0,15.566,0,23.775,0c0-6.666-0.199-13.11,0.076-19.532
		c0.16-3.72-0.98-4.982-4.769-4.81c-6.402,0.293-12.829,0.081-19.344,0.081c0-3.622-0.007-6.451,0.002-9.281
		c0.013-4.473,2.11-6.769,6.736-6.671c4.495,0.096,9.004,0.18,13.486-0.084c1.29-0.076,3.564-1.332,3.595-2.116
		c0.279-7.235,0.165-14.485,0.165-21.921c-6.309,0-11.797-0.011-17.286,0.002C31.352,1.04,20.113,10.439,17.544,25.553
		c-0.848,4.989-0.886,10.115-1.335,15.693c-5.537,0-10.937,0-16.208,0c0,8.272,0,16.007,0,23.947
		C5.513,65.193,10.659,65.193,16.792,65.193z"/>
	<path fill-rule="evenodd" clip-rule="evenodd" fill="#5D5D5D" d="M16.792,65.193c-6.133,0-11.28,0-16.792,0
		c0-7.94,0-15.675,0-23.947c5.271,0,10.672,0,16.208,0c0.45-5.579,0.487-10.705,1.335-15.693
		C20.113,10.439,31.352,1.04,46.441,1.006c5.489-0.013,10.978-0.002,17.286-0.002c0,7.436,0.114,14.686-0.165,21.921
		c-0.03,0.784-2.305,2.04-3.595,2.116c-4.482,0.264-8.991,0.18-13.486,0.084c-4.626-0.098-6.724,2.199-6.736,6.671
		c-0.009,2.83-0.002,5.659-0.002,9.281c6.515,0,12.941,0.212,19.344-0.081c3.788-0.173,4.929,1.09,4.769,4.81
		c-0.275,6.422-0.076,12.866-0.076,19.532c-8.209,0-15.774,0-23.775,0c0,18.106,0,36.021,0,54.345c-7.809,0-15.197,0-23.211,0
		C16.792,101.814,16.792,83.777,16.792,65.193z"/>
</g>
</svg>
