<?xml version="1.0" encoding="utf-8"?>
<!-- Generator: Adobe Illustrator 16.0.0, SVG Export Plug-In . SVG Version: 6.00 Build 0)  -->
<!DOCTYPE svg PUBLIC "-//W3C//DTD SVG 1.1//EN" "http://www.w3.org/Graphics/SVG/1.1/DTD/svg11.dtd">
<svg version="1.1" id="Capa_1" xmlns="http://www.w3.org/2000/svg" xmlns:xlink="http://www.w3.org/1999/xlink" x="0px" y="0px"
	 width="383.944px" height="540.209px" viewBox="0 0 383.944 540.209" enable-background="new 0 0 383.944 540.209"
	 xml:space="preserve">
<g>
	<path fill-rule="evenodd" clip-rule="evenodd" fill="#0066FF" d="M57.183,0c-0.042,1.109-0.122,2.22-0.122,3.329
		c-0.005,125.762-0.005,251.524,0,377.286c0,1.109,0.08,2.219,0.122,3.328c-15.101,0-30.201,0-45.301,0
		c-0.993-1.083-1.128-2.434-1.183-3.809c-0.049-1.236-0.036-2.474-0.036-3.711c-0.001-122.968-0.004-245.937,0.024-368.905
		C10.689,4.979,10.082,2.28,11.882,0C26.982,0,42.083,0,57.183,0z"/>
	<path fill-rule="evenodd" clip-rule="evenodd" fill="#0066FF" d="M11.882,0c0.022,0.865,0.064,1.729,0.064,2.594
		c0.003,126.251,0.003,252.503,0,378.755c0,0.864-0.042,1.729-0.064,2.594"/>
	<path fill-rule="evenodd" clip-rule="evenodd" fill="#0066FF" d="M225.583,22.431c47.395,0,94.79,0.031,142.185-0.068
		c3.228-0.007,4.323,0.585,4.317,4.141c-0.12,72.392-0.113,144.784-0.013,217.176c0.004,3.137-0.81,3.8-3.854,3.797
		c-95.037-0.087-190.075-0.082-285.112-0.017c-2.717,0.001-3.715-0.432-3.71-3.512c0.102-72.639,0.097-145.278,0.015-217.917
		c-0.003-2.867,0.655-3.676,3.616-3.67C130.545,22.461,178.063,22.431,225.583,22.431z"/>
	<path fill-rule="evenodd" clip-rule="evenodd" fill="#FFFFFF" d="M304.469,135.138c0-6.68,0.086-13.361-0.049-20.038
		c-0.044-2.137,0.614-2.696,2.703-2.682c13.234,0.087,26.472,0.088,39.706,0.001c2.164-0.014,2.701,0.727,2.689,2.782
		c-0.078,13.235-0.093,26.472,0.011,39.707c0.018,2.245-0.825,2.6-2.795,2.588c-13.235-0.073-26.472-0.09-39.707,0.014
		c-2.17,0.017-2.641-0.676-2.604-2.704C304.545,148.251,304.469,141.694,304.469,135.138z"/>
	<path fill-rule="evenodd" clip-rule="evenodd" fill="#FFFFFF" d="M147.007,202.358c0,6.675-0.084,13.352,0.049,20.024
		c0.042,2.125-0.616,2.667-2.689,2.653c-13.226-0.089-26.454-0.11-39.68,0.014c-2.409,0.022-2.826-0.796-2.811-2.971
		c0.094-13.103,0.102-26.207-0.005-39.309c-0.019-2.312,0.667-2.923,2.935-2.906c13.102,0.101,26.207,0.131,39.309-0.019
		c2.666-0.031,2.975,1.009,2.934,3.229C146.931,189.5,147.007,195.93,147.007,202.358z"/>
	<path fill-rule="evenodd" clip-rule="evenodd" fill="#FFFFFF" d="M236.937,201.991c0-6.428,0.11-12.859-0.058-19.283
		c-0.063-2.371,0.728-2.86,2.946-2.844c13.103,0.1,26.206,0.101,39.309,0c2.263-0.017,2.957,0.586,2.938,2.902
		c-0.107,13.103-0.099,26.207-0.006,39.309c0.016,2.169-0.393,2.998-2.807,2.974c-13.227-0.125-26.454-0.102-39.681-0.014
		c-2.067,0.014-2.733-0.52-2.691-2.65C237.02,215.59,236.937,208.789,236.937,201.991z"/>
	<path fill-rule="evenodd" clip-rule="evenodd" fill="#FFFFFF" d="M214.525,135.043c0,6.548-0.118,13.099,0.062,19.642
		c0.065,2.383-0.723,2.838-2.922,2.821c-13.095-0.098-26.19-0.117-39.285,0.013c-2.494,0.025-3.035-0.742-3.015-3.103
		c0.112-12.971,0.125-25.944-0.009-38.915c-0.025-2.494,0.724-3.106,3.107-3.087c12.971,0.101,25.944,0.125,38.914-0.016
		c2.703-0.029,3.267,0.883,3.202,3.374C214.416,122.192,214.525,128.619,214.525,135.043z"/>
	<path fill-rule="evenodd" clip-rule="evenodd" fill="#FFFFFF" d="M124.708,89.935c-6.553,0-13.109-0.083-19.66,0.046
		c-2.271,0.044-3.221-0.351-3.191-2.973c0.148-12.982,0.137-25.968,0.008-38.95c-0.025-2.517,0.765-3.086,3.148-3.067
		c13.107,0.107,26.215,0.094,39.322,0.007c2.056-0.014,2.739,0.475,2.723,2.641c-0.1,13.23-0.098,26.462-0.001,39.693
		c0.016,2.127-0.612,2.69-2.688,2.65C137.817,89.855,131.262,89.935,124.708,89.935z"/>
	<path fill-rule="evenodd" clip-rule="evenodd" fill="#FFFFFF" d="M236.937,67.587c0-6.677,0.061-13.355-0.039-20.032
		c-0.027-1.863,0.393-2.571,2.424-2.558c13.354,0.086,26.71,0.089,40.063,0c2.166-0.015,2.69,0.707,2.678,2.771
		c-0.083,13.23-0.08,26.462-0.002,39.693c0.012,1.95-0.565,2.522-2.504,2.511C266.078,89.9,252.6,89.9,239.121,89.974
		c-1.864,0.01-2.239-0.659-2.219-2.355C236.985,80.943,236.937,74.265,236.937,67.587z"/>
</g>
<g>
	<path fill="#0066FF" d="M95.928,355.311h11.636l4.487,17.422l4.455-17.422h11.629v28.633h-7.246v-21.836l-5.583,21.836h-6.559
		l-5.573-21.836v21.836h-7.246V355.311z"/>
	<path fill="#0066FF" d="M151.382,379.217h-10.045l-1.396,4.727h-9.034l10.762-28.633h9.651l10.759,28.633h-9.265L151.382,379.217z
		 M149.547,373.025l-3.16-10.293l-3.127,10.293H149.547z"/>
	<path fill="#0066FF" d="M162.939,355.311h9.746l5.068,8.809l4.932-8.809h9.648l-8.912,13.867l9.752,14.766h-9.941l-5.654-9.199
		l-5.654,9.199h-9.883l9.877-14.922L162.939,355.311z"/>
	<path fill="#0066FF" d="M196.357,355.311h8.867v28.633h-8.867V355.311z"/>
	<path fill="#0066FF" d="M211.475,355.311h11.636l4.487,17.422l4.455-17.422h11.629v28.633h-7.246v-21.836l-5.583,21.836h-6.559
		l-5.573-21.836v21.836h-7.246V355.311z"/>
	<path fill="#0066FF" d="M266.929,379.217h-10.045l-1.395,4.727h-9.034l10.762-28.633h9.651l10.759,28.633h-9.265L266.929,379.217z
		 M265.094,373.025l-3.16-10.293l-3.128,10.293H265.094z"/>
	<path fill="#0066FF" d="M40.205,403.311H62.08v6.152H49.092v5h11.094v5.781H49.092v11.699h-8.887V403.311z"/>
	<path fill="#0066FF" d="M66.846,403.311h8.848v21.582h13.809v7.051H66.846V403.311z"/>
	<path fill="#0066FF" d="M93.506,403.311h23.711v6.113h-14.844v4.551h13.77v5.84h-13.77v5.645h15.273v6.484H93.506V403.311z"/>
	<path fill="#0066FF" d="M120.459,403.311h9.746l5.068,8.809l4.932-8.809h9.648l-8.912,13.867l9.752,14.766h-9.941l-5.654-9.199
		l-5.654,9.199h-9.883l9.877-14.922L120.459,403.311z"/>
	<path fill="#0066FF" d="M153.877,403.311h8.867v28.633h-8.867V403.311z"/>
	<path fill="#0066FF" d="M169.111,403.311h16.563c2.761,0,4.88,0.684,6.357,2.051s2.217,3.06,2.217,5.078
		c0,1.692-0.527,3.145-1.582,4.355c-0.703,0.808-1.731,1.445-3.086,1.914c2.058,0.495,3.571,1.345,4.541,2.549
		s1.455,2.718,1.455,4.541c0,1.484-0.345,2.819-1.035,4.004s-1.634,2.122-2.832,2.813c-0.742,0.43-1.862,0.742-3.359,0.938
		c-1.992,0.261-3.313,0.391-3.965,0.391h-15.273V403.311z M178.037,414.541h3.848c1.38,0,2.341-0.237,2.881-0.713
		s0.811-1.162,0.811-2.061c0-0.833-0.271-1.484-0.811-1.953s-1.481-0.703-2.822-0.703h-3.906V414.541z M178.037,425.791h4.512
		c1.523,0,2.598-0.271,3.223-0.811s0.938-1.267,0.938-2.178c0-0.847-0.31-1.526-0.928-2.041s-1.702-0.771-3.252-0.771h-4.492
		V425.791z"/>
	<path fill="#0066FF" d="M200.557,403.311h8.867v28.633h-8.867V403.311z"/>
	<path fill="#0066FF" d="M215.771,403.311h8.848v21.582h13.809v7.051h-22.656V403.311z"/>
	<path fill="#0066FF" d="M242.803,403.311h8.867v28.633h-8.867V403.311z"/>
	<path fill="#0066FF" d="M258.135,403.311h13.145c2.591,0,4.685,0.352,6.279,1.055s2.913,1.712,3.955,3.027s1.797,2.845,2.266,4.59
		s0.703,3.594,0.703,5.547c0,3.06-0.349,5.433-1.045,7.119s-1.663,3.099-2.9,4.238s-2.565,1.897-3.984,2.275
		c-1.94,0.521-3.698,0.781-5.273,0.781h-13.145V403.311z M266.982,409.795v15.645h2.168c1.849,0,3.164-0.205,3.945-0.615
		s1.394-1.126,1.836-2.148s0.664-2.679,0.664-4.971c0-3.034-0.495-5.11-1.484-6.23s-2.63-1.68-4.922-1.68H266.982z"/>
	<path fill="#0066FF" d="M305.015,427.217H294.97l-1.395,4.727h-9.034l10.762-28.633h9.651l10.759,28.633h-9.265L305.015,427.217z
		 M303.18,421.025l-3.16-10.293l-3.128,10.293H303.18z"/>
	<path fill="#0066FF" d="M318.643,403.311h13.145c2.591,0,4.685,0.352,6.279,1.055s2.913,1.712,3.954,3.027
		c1.043,1.315,1.797,2.845,2.266,4.59s0.703,3.594,0.703,5.547c0,3.06-0.348,5.433-1.045,7.119
		c-0.695,1.687-1.662,3.099-2.899,4.238s-2.565,1.897-3.984,2.275c-1.94,0.521-3.698,0.781-5.273,0.781h-13.145V403.311z
		 M327.49,409.795v15.645h2.168c1.849,0,3.164-0.205,3.945-0.615s1.394-1.126,1.836-2.148s0.664-2.679,0.664-4.971
		c0-3.034-0.495-5.11-1.484-6.23s-2.63-1.68-4.922-1.68H327.49z"/>
	<path fill="#0066FF" d="M48.33,451.311h13.145c2.591,0,4.684,0.352,6.279,1.055c1.595,0.703,2.913,1.712,3.955,3.027
		c1.042,1.315,1.797,2.845,2.266,4.59s0.703,3.594,0.703,5.547c0,3.06-0.349,5.433-1.045,7.119c-0.697,1.687-1.664,3.099-2.9,4.238
		c-1.237,1.14-2.565,1.897-3.984,2.275c-1.94,0.521-3.698,0.781-5.273,0.781H48.33V451.311z M57.178,457.795v15.645h2.168
		c1.849,0,3.164-0.205,3.945-0.615s1.393-1.126,1.836-2.148c0.442-1.022,0.664-2.679,0.664-4.971c0-3.034-0.495-5.11-1.484-6.23
		c-0.99-1.12-2.63-1.68-4.922-1.68H57.178z"/>
	<path fill="#0066FF" d="M79.307,451.311h23.711v6.113H88.174v4.551h13.77v5.84h-13.77v5.645h15.273v6.484H79.307V451.311z"/>
	<path fill="#0066FF" d="M106.67,470.471l8.418-0.527c0.182,1.367,0.553,2.409,1.113,3.125c0.911,1.159,2.213,1.738,3.906,1.738
		c1.263,0,2.236-0.296,2.92-0.889s1.025-1.279,1.025-2.061c0-0.742-0.326-1.406-0.977-1.992c-0.651-0.586-2.162-1.14-4.531-1.66
		c-3.88-0.872-6.647-2.031-8.301-3.477c-1.667-1.445-2.5-3.288-2.5-5.527c0-1.472,0.426-2.861,1.279-4.17
		c0.853-1.309,2.135-2.337,3.848-3.086c1.712-0.749,4.059-1.123,7.041-1.123c3.659,0,6.448,0.681,8.369,2.041
		c1.92,1.36,3.063,3.525,3.428,6.494l-8.34,0.488c-0.222-1.289-0.687-2.227-1.396-2.813c-0.71-0.586-1.689-0.879-2.939-0.879
		c-1.029,0-1.804,0.218-2.324,0.654c-0.521,0.437-0.781,0.967-0.781,1.592c0,0.456,0.215,0.866,0.645,1.23
		c0.417,0.378,1.406,0.729,2.969,1.055c3.867,0.833,6.637,1.677,8.311,2.529c1.673,0.853,2.891,1.911,3.652,3.174
		s1.143,2.676,1.143,4.238c0,1.836-0.508,3.528-1.523,5.078s-2.435,2.725-4.258,3.525c-1.823,0.801-4.121,1.201-6.895,1.201
		c-4.87,0-8.242-0.938-10.117-2.813S106.917,473.361,106.67,470.471z"/>
	<path fill="#0066FF" d="M137.217,451.311h13.145c2.591,0,4.684,0.352,6.279,1.055c1.595,0.703,2.913,1.712,3.955,3.027
		c1.042,1.315,1.797,2.845,2.266,4.59s0.703,3.594,0.703,5.547c0,3.06-0.349,5.433-1.045,7.119c-0.697,1.687-1.664,3.099-2.9,4.238
		c-1.237,1.14-2.565,1.897-3.984,2.275c-1.94,0.521-3.698,0.781-5.273,0.781h-13.145V451.311z M146.064,457.795v15.645h2.168
		c1.849,0,3.164-0.205,3.945-0.615s1.393-1.126,1.836-2.148c0.442-1.022,0.664-2.679,0.664-4.971c0-3.034-0.495-5.11-1.484-6.23
		c-0.99-1.12-2.63-1.68-4.922-1.68H146.064z"/>
	<path fill="#0066FF" d="M168.193,451.311h23.711v6.113h-14.844v4.551h13.77v5.84h-13.77v5.645h15.273v6.484h-24.141V451.311z"/>
	<path fill="#0066FF" d="M227.178,450.822v29.121h-8.047v-19.082c-1.302,0.989-2.562,1.79-3.779,2.402s-2.744,1.198-4.58,1.758
		v-6.523c2.708-0.872,4.812-1.921,6.309-3.145s2.669-2.734,3.516-4.531H227.178z"/>
	<path fill="#0066FF" d="M250.576,451.311h13.145c2.591,0,4.685,0.352,6.279,1.055s2.913,1.712,3.955,3.027s1.797,2.845,2.266,4.59
		s0.703,3.594,0.703,5.547c0,3.06-0.349,5.433-1.045,7.119s-1.663,3.099-2.9,4.238s-2.565,1.897-3.984,2.275
		c-1.94,0.521-3.698,0.781-5.273,0.781h-13.145V451.311z M259.424,457.795v15.645h2.168c1.849,0,3.164-0.205,3.945-0.615
		s1.394-1.126,1.836-2.148s0.664-2.679,0.664-4.971c0-3.034-0.495-5.11-1.484-6.23s-2.63-1.68-4.922-1.68H259.424z"/>
	<path fill="#0066FF" d="M281.924,451.311h8.867v28.633h-8.867V451.311z"/>
	<path fill="#0066FF" d="M314.741,475.217h-10.045l-1.395,4.727h-9.034l10.762-28.633h9.651l10.759,28.633h-9.265L314.741,475.217z
		 M312.906,469.025l-3.16-10.293l-3.128,10.293H312.906z"/>
	<path fill="#0066FF" d="M2.969,499.311h8.848v10.02h9.668v-10.02h8.887v28.633h-8.887v-11.582h-9.668v11.582H2.969V499.311z"/>
	<path fill="#0066FF" d="M53.853,523.217H43.808l-1.396,4.727h-9.034l10.762-28.633h9.651l10.759,28.633h-9.265L53.853,523.217z
		 M52.018,517.025l-3.16-10.293l-3.127,10.293H52.018z"/>
	<path fill="#0066FF" d="M65.82,518.471l8.418-0.527c0.182,1.367,0.553,2.409,1.113,3.125c0.911,1.159,2.213,1.738,3.906,1.738
		c1.263,0,2.236-0.296,2.92-0.889s1.025-1.279,1.025-2.061c0-0.742-0.326-1.406-0.977-1.992c-0.651-0.586-2.162-1.14-4.531-1.66
		c-3.88-0.872-6.647-2.031-8.301-3.477c-1.667-1.445-2.5-3.288-2.5-5.527c0-1.472,0.426-2.861,1.279-4.17
		c0.853-1.309,2.135-2.337,3.848-3.086c1.712-0.749,4.059-1.123,7.041-1.123c3.659,0,6.448,0.681,8.369,2.041
		c1.92,1.36,3.063,3.525,3.428,6.494l-8.34,0.488c-0.222-1.289-0.687-2.227-1.396-2.813c-0.71-0.586-1.689-0.879-2.939-0.879
		c-1.029,0-1.804,0.218-2.324,0.654c-0.521,0.437-0.781,0.967-0.781,1.592c0,0.456,0.215,0.866,0.645,1.23
		c0.417,0.378,1.406,0.729,2.969,1.055c3.867,0.833,6.637,1.677,8.311,2.529c1.673,0.853,2.891,1.911,3.652,3.174
		s1.143,2.676,1.143,4.238c0,1.836-0.508,3.528-1.523,5.078s-2.435,2.725-4.258,3.525c-1.823,0.801-4.121,1.201-6.895,1.201
		c-4.87,0-8.242-0.938-10.117-2.813S66.067,521.361,65.82,518.471z"/>
	<path fill="#0066FF" d="M94.238,499.311h26.895v7.07h-9.023v21.563h-8.848v-21.563h-9.023V499.311z"/>
	<path fill="#0066FF" d="M140.025,523.217H129.98l-1.396,4.727h-9.034l10.762-28.633h9.651l10.759,28.633h-9.265L140.025,523.217z
		 M138.189,517.025l-3.16-10.293l-3.127,10.293H138.189z"/>
	<path fill="#0066FF" d="M188.867,527.943H165c0.273-2.356,1.104-4.573,2.49-6.65s3.987-4.528,7.803-7.354
		c2.331-1.731,3.821-3.047,4.473-3.945s0.977-1.751,0.977-2.559c0-0.872-0.322-1.618-0.967-2.236s-1.455-0.928-2.432-0.928
		c-1.016,0-1.846,0.319-2.49,0.957s-1.078,1.765-1.299,3.379l-7.969-0.645c0.313-2.239,0.885-3.987,1.719-5.244
		c0.833-1.257,2.008-2.22,3.525-2.891c1.517-0.671,3.616-1.006,6.299-1.006c2.8,0,4.978,0.319,6.533,0.957s2.78,1.618,3.672,2.939
		s1.338,2.803,1.338,4.443c0,1.745-0.511,3.411-1.533,5s-2.881,3.333-5.576,5.234c-1.602,1.106-2.673,1.882-3.213,2.324
		s-1.175,1.022-1.904,1.738h12.422V527.943z"/>
	<path fill="#0066FF" d="M205.938,522.592h-14.492v-6.543l14.492-17.227h6.934v17.598h3.594v6.172h-3.594v5.352h-6.934V522.592z
		 M205.938,516.42v-9.011l-7.657,9.011H205.938z"/>
	<path fill="#0066FF" d="M233.477,499.311h11.636l4.487,17.422l4.455-17.422h11.629v28.633h-7.246v-21.836l-5.583,21.836h-6.559
		l-5.573-21.836v21.836h-7.246V499.311z"/>
	<path fill="#0066FF" d="M271.309,499.311h23.711v6.113h-14.844v4.551h13.77v5.84h-13.77v5.645h15.273v6.484h-24.141V499.311z"/>
	<path fill="#0066FF" d="M298.672,518.471l8.418-0.527c0.183,1.367,0.554,2.409,1.113,3.125c0.911,1.159,2.214,1.738,3.906,1.738
		c1.263,0,2.236-0.296,2.92-0.889s1.025-1.279,1.025-2.061c0-0.742-0.325-1.406-0.977-1.992s-2.161-1.14-4.531-1.66
		c-3.88-0.872-6.647-2.031-8.301-3.477c-1.667-1.445-2.5-3.288-2.5-5.527c0-1.472,0.427-2.861,1.279-4.17s2.136-2.337,3.848-3.086
		s4.06-1.123,7.041-1.123c3.659,0,6.448,0.681,8.369,2.041s3.063,3.525,3.428,6.494l-8.34,0.488
		c-0.222-1.289-0.687-2.227-1.396-2.813s-1.689-0.879-2.939-0.879c-1.028,0-1.804,0.218-2.324,0.654s-0.781,0.967-0.781,1.592
		c0,0.456,0.215,0.866,0.645,1.23c0.417,0.378,1.406,0.729,2.969,1.055c3.867,0.833,6.638,1.677,8.311,2.529
		s2.891,1.911,3.652,3.174s1.143,2.676,1.143,4.238c0,1.836-0.508,3.528-1.523,5.078s-2.435,2.725-4.258,3.525
		s-4.121,1.201-6.895,1.201c-4.87,0-8.242-0.938-10.117-2.813S298.919,521.361,298.672,518.471z"/>
	<path fill="#0066FF" d="M329.082,499.311h23.71v6.113h-14.843v4.551h13.769v5.84h-13.769v5.645h15.272v6.484h-24.14V499.311z"/>
	<path fill="#0066FF" d="M356.444,518.471l8.418-0.527c0.184,1.367,0.555,2.409,1.113,3.125c0.912,1.159,2.215,1.738,3.906,1.738
		c1.264,0,2.236-0.296,2.92-0.889s1.025-1.279,1.025-2.061c0-0.742-0.324-1.406-0.977-1.992c-0.65-0.586-2.16-1.14-4.531-1.66
		c-3.879-0.872-6.646-2.031-8.301-3.477c-1.666-1.445-2.5-3.288-2.5-5.527c0-1.472,0.428-2.861,1.279-4.17
		c0.854-1.309,2.137-2.337,3.848-3.086c1.713-0.749,4.061-1.123,7.041-1.123c3.66,0,6.449,0.681,8.369,2.041
		c1.922,1.36,3.064,3.525,3.428,6.494l-8.34,0.488c-0.221-1.289-0.686-2.227-1.396-2.813c-0.709-0.586-1.689-0.879-2.939-0.879
		c-1.027,0-1.803,0.218-2.324,0.654c-0.52,0.437-0.781,0.967-0.781,1.592c0,0.456,0.215,0.866,0.645,1.23
		c0.418,0.378,1.406,0.729,2.969,1.055c3.867,0.833,6.639,1.677,8.311,2.529c1.674,0.853,2.891,1.911,3.652,3.174
		s1.143,2.676,1.143,4.238c0,1.836-0.508,3.528-1.523,5.078s-2.434,2.725-4.258,3.525c-1.822,0.801-4.121,1.201-6.895,1.201
		c-4.869,0-8.242-0.938-10.117-2.813S356.692,521.361,356.444,518.471z"/>
</g>
</svg>
