<?xml version="1.0" encoding="utf-8"?>
<!-- Generator: Adobe Illustrator 16.0.0, SVG Export Plug-In . SVG Version: 6.00 Build 0)  -->
<!DOCTYPE svg PUBLIC "-//W3C//DTD SVG 1.1//EN" "http://www.w3.org/Graphics/SVG/1.1/DTD/svg11.dtd">
<svg version="1.1" id="Capa_1" xmlns="http://www.w3.org/2000/svg" xmlns:xlink="http://www.w3.org/1999/xlink" x="0px" y="0px"
	 width="400.364px" height="519.836px" viewBox="0 0 400.364 519.836" enable-background="new 0 0 400.364 519.836"
	 xml:space="preserve">
<g>
	<path fill-rule="evenodd" clip-rule="evenodd" fill="#0066FF" d="M215.43,384.13c-6.932-4.957-14.321-9.262-20.883-14.75
		c-6.606-5.527-12.775-11.451-17.51-18.715c-7.968-12.229-9.686-25.092-3.97-38.742c2.647-6.32,4.811-12.777,6.07-19.561
		c2.612-14.076-2.501-24.509-14.566-31.729c-6.659-3.986-10.726-9.423-9.918-17.458c0.796-7.927,3.439-15.352,9.27-20.907
		c6.563-6.254,8.796-13.767,8.735-22.454c-0.059-8.377-3.183-12.359-11.359-14.025c-2.365-0.482-4.708-0.511-7.07-0.077
		c-7.294,1.34-8.03,2.454-6.727,9.483c2.445,13.191-2.023,24.698-9.071,35.427c-6.003,9.137-13.717,16.725-22.6,23.054
		c-11.451,8.157-22.799,4.984-28.146-8.095c-4.736-11.585-4.792-23.385,0.208-34.986c0.851-1.976,1.239-2.834-1.445-3.34
		c-6.509-1.225-13.069-1.613-19.654-1.983c-2.83-0.159-2.444,1.719-2.527,3.356c-1.504,29.667,4.418,57.741,19.046,83.642
		c21.254,37.633,52.891,62.243,94.606,73.786c0.761,0.211,1.521,0.43,2.275,0.664c4.072,1.266,6.034,4.373,5.09,8.051
		c-0.902,3.514-4.4,5.34-8.503,4.287c-14.214-3.656-27.852-8.826-40.565-16.191c-46.036-26.676-73.582-66.369-82.863-118.669
		c-2.617-14.745-2.774-29.665-1.1-44.573c0.484-4.308,2.58-6.811,6.674-6.979c11.366-0.467,22.699-0.137,33.736,3.089
		c1.63,0.477,3.221,1.175,4.729,1.965c7.333,3.843,8.55,9.618,3.469,16.155c-4.866,6.26-4.834,23.094-0.033,29.426
		c1.56,2.057,3.502,2.637,5.48,1.245c14.4-10.129,26.07-22.275,28.978-40.606c0.503-3.173-0.191-6.297-1.032-9.376
		c-1.372-5.02-0.869-9.819,2.774-13.698c7.769-8.274,17.64-9.456,28.084-7.313c9.451,1.939,16.913,7.271,19.027,16.886
		c2.958,13.447,1.777,26.579-8.202,37.424c-3.804,4.135-6.937,8.5-8.267,14.13c-0.802,3.398,0.1,5.567,2.92,7.346
		c2.445,1.542,4.889,3.132,7.121,4.96c13.781,11.287,17.023,25.971,13.577,42.75c-1.328,6.467-3.333,12.732-5.987,18.768
		c-4.431,10.076-3.202,19.518,2.956,28.447c7.903,11.461,19.153,19.094,30.528,26.578c1.108,0.73,2.28,0.494,3.445,0.463
		c72.897-1.938,135.026-56.258,146.945-128.436c2.447-14.811,2.916-29.643,0.861-44.533c-0.308-2.233-0.519-4.504,0.952-6.478
		c1.666-2.239,3.963-3.083,6.632-2.485c2.869,0.644,4.37,2.642,4.95,5.508c0.636,3.146,0.101,6.48,1.557,9.485
		c0,2.112,0,4.225,0,6.336c-0.647,1.584-0.647,3.168,0,4.752c0,2.904,0,5.809,0,8.713c-0.643,0.645-0.326,1.467-0.408,2.216
		c0.035,0.604-0.126,1.256,0.408,1.744c0,1.584,0,3.168,0,4.752c-0.887,10.229-2.37,20.338-5.279,30.233
		c-11.16,37.957-32.696,68.537-64.95,91.464c-21.112,15.008-44.539,24.455-70.143,28.463c-4.136,0.646-8.371,0.229-12.488,1.115
		c-0.792,0-1.584,0-2.376,0c-0.532-0.578-1.238-0.357-1.886-0.408c-0.677,0-1.353,0.002-2.028,0
		c-0.813,0.107-1.709-0.285-2.422,0.408C220.183,384.13,217.807,384.13,215.43,384.13z"/>
	<path fill-rule="evenodd" clip-rule="evenodd" fill="#0066FF" d="M91.875,0c3.158,2.018,4.25,4.844,4.162,8.613
		c-0.214,9.097,0.043,18.204-0.144,27.302c-0.051,2.448,0.89,3.074,2.991,3.525c22.229,4.767,35.763,18.482,40.855,40.468
		c0.677,2.926,1.716,3.377,4.304,3.338c9.1-0.141,18.203-0.079,27.304-0.045c5.021,0.019,7.774,2.319,7.799,6.383
		c0.024,4.073-2.688,6.364-7.733,6.384c-9.102,0.037-18.206,0.107-27.305-0.049c-2.64-0.045-3.69,0.494-4.346,3.375
		c-5.022,22.065-18.737,35.667-40.82,40.569c-2.625,0.583-3.034,1.539-3.01,3.822c0.099,9.232,0.065,18.467,0.035,27.7
		c-0.017,5.073-2.271,7.777-6.345,7.763c-4.073-0.013-6.391-2.766-6.409-7.773c-0.034-9.233-0.063-18.468,0.026-27.701
		c0.021-2.225-0.274-3.222-2.934-3.827c-22.151-5.04-36.057-18.551-40.847-40.953c-0.534-2.497-1.628-2.999-3.94-2.966
		c-8.836,0.125-17.679-0.091-26.512,0.116C5.154,96.134,2.093,95.237,0,91.875c0-1.584,0-3.168,0-4.752
		c1.459-3.987,4.676-5.028,8.49-5.05c8.168-0.044,16.339-0.14,24.502,0.042c3.566,0.08,5.073-1.335,5.97-4.715
		C44.32,57.199,57.199,44.32,77.4,38.962c3.38-0.896,4.795-2.404,4.715-5.97c-0.183-8.164-0.087-16.334-0.042-24.502
		c0.021-3.813,1.063-7.03,5.05-8.49C88.707,0,90.291,0,91.875,0z"/>
	<path fill-rule="evenodd" clip-rule="evenodd" fill="#0066FF" d="M384.131,215.43c-1.156-1.584-1.252-3.168,0-4.752
		C384.131,212.262,384.131,213.846,384.131,215.43z"/>
	<path fill-rule="evenodd" clip-rule="evenodd" fill="#0066FF" d="M383.455,226.573c-0.1-0.9-0.326-1.837,0.676-2.431
		c0,0.792,0,1.584,0,2.376C383.932,226.854,383.706,226.872,383.455,226.573z"/>
	<path fill-rule="evenodd" clip-rule="evenodd" fill="#0066FF" d="M222.559,384.13c0.593-0.994,1.53-0.766,2.427-0.682
		c0.221,0.168,0.286,0.326,0.198,0.473c-0.085,0.139-0.168,0.209-0.249,0.209C224.143,384.13,223.351,384.13,222.559,384.13z"/>
	<path fill-rule="evenodd" clip-rule="evenodd" fill="#0066FF" d="M224.935,384.13c0.007-0.229,0.023-0.455,0.05-0.682
		c0.794-0.002,1.586-0.004,2.379-0.004c0.22,0.17,0.284,0.328,0.196,0.475c-0.085,0.141-0.168,0.211-0.249,0.211
		C226.519,384.13,225.727,384.13,224.935,384.13z"/>
	<path fill-rule="evenodd" clip-rule="evenodd" fill="#0066FF" d="M383.455,226.573c0.225-0.021,0.45-0.039,0.676-0.055
		c0,0.527,0,1.056,0,1.584C383.26,227.879,383.378,227.217,383.455,226.573z"/>
	<path fill-rule="evenodd" clip-rule="evenodd" fill="#0066FF" d="M227.311,384.13c-0.006-0.23,0.012-0.459,0.053-0.686
		c0.645-0.07,1.333-0.238,1.531,0.686C228.366,384.13,227.838,384.13,227.311,384.13z"/>
	<path fill-rule="evenodd" clip-rule="evenodd" fill="#0066FF" d="M219.408,64.074c-11.78,0.07-23.372,1.715-34.856,4.248
		c-4.561,1.006-7.887-0.616-8.753-4.295c-0.919-3.905,1.041-6.821,5.598-7.958c25.299-6.309,50.619-6.368,75.923-0.041
		c4.872,1.218,6.234,3.236,5.693,8.309c-0.458,4.287-0.755,8.774,1.99,12.205c7.532,9.417,6.069,19.978,4.628,30.613
		c-0.693,5.109-1.855,10.119-4.452,14.644c-2.493,4.343-5.996,6.945-11.275,7.582c-9.025,1.089-16.313,5.661-21.958,12.758
		c-2.86,3.596-3.062,7.302-0.393,11.265c5.378,7.986,8.986,16.988,14.091,25.125c4.057,6.469,4.35,6.66,8.987,0.351
		c4.299-5.848,7.112-12.588,10.564-18.944c1.568-2.888,3.102-5.816,4.938-8.532c4.966-7.342,9.576-8.754,17.987-5.888
		c6.051,2.062,10.229,6.274,13.612,11.489c3.453,5.324,5.828,11.2,8.612,16.858c2.072,4.211,5.165,5.966,9.75,5.873
		c14.334-0.289,28.256-2.86,41.962-6.972c3.176-0.952,1.731-2.668,1.204-4.14c-15.24-42.46-43.211-73.252-84.393-91.9
		c-0.959-0.434-1.938-0.828-2.873-1.305c-3.686-1.884-5.006-5.085-3.522-8.476c1.438-3.29,4.895-4.699,8.642-3.145
		c4.49,1.863,8.976,3.808,13.247,6.116c41.538,22.447,69.37,56.196,83.221,101.38c2.024,6.603,0.777,9.155-5.728,11.514
		c-16.219,5.883-32.939,9.107-50.224,9.669c-11.382,0.37-19.19-4.374-23.732-14.759c-1.527-3.492-3.231-6.909-4.937-10.32
		c-1.179-2.357-2.531-4.625-4.347-6.567c-4.428-4.735-6.846-4.538-9.898,1.024c-3.354,6.11-6.499,12.335-9.812,18.469
		c-2.198,4.071-4.747,7.929-8.061,11.193c-7.098,6.995-15.473,6.72-22.038-0.747c-3.504-3.984-5.976-8.65-8.48-13.293
		c-3.124-5.789-6.219-11.601-9.58-17.251c-5.583-9.388-5.263-18.173,1.665-26.693c7.234-8.898,16.542-14.667,27.902-16.572
		c3.033-0.509,4.287-1.9,5.085-4.481c2.171-7.021,2.298-14.276,2.612-21.516c0.063-1.458-0.873-2.46-1.568-3.539
		c-3.543-5.496-6.432-11.249-6.419-17.962c0.006-2.733-2.027-2.429-3.492-2.696C237.572,65.132,228.547,64.035,219.408,64.074z"/>
	<path fill-rule="evenodd" clip-rule="evenodd" fill="#0066FF" d="M288.942,282.609c-5.703-0.192-11.363-1.805-16.355-6.218
		c-7.065-6.246-15.869-9.78-24.139-14.11c-4.528-2.372-8.162-5.436-8.515-10.974c-0.433-6.788,5.434-12.872,13.142-13.705
		c3.178-0.343,6.428-0.37,9.327,1.03c2.408,1.163,4.023,0.463,5.563-1.25c1.939-2.157,3.815-4.372,5.75-6.535
		c4.146-4.637,8.87-7.757,15.411-8.646c7.781-1.058,15.166-4.391,23.171-4.697c8.121-0.312,15.475,1.346,21.156,7.669
		c4.995,5.558,5.384,11.973,0.975,18c-1.316,1.8-2.841,3.484-4.463,5.018c-5.871,5.558-10.914,11.487-14.118,19.218
		C311.92,276.885,301.084,282.564,288.942,282.609z"/>
	<path fill-rule="evenodd" clip-rule="evenodd" fill="#0066FF" d="M239.237,333.089c-0.02,6.547-2.457,10.695-6.883,13.729
		c-7.267,4.98-18.022,5.01-25.412,0.115c-5.837-3.867-8-9.387-6.005-16.098c2.493-8.383,7.881-14.551,15.512-18.605
		c5.837-3.104,10.574-2,14.774,3.055C235.771,320.761,239.058,326.824,239.237,333.089z"/>
	<path fill-rule="evenodd" clip-rule="evenodd" fill="#0066FF" d="M116.006,17.719c0.903,0.302,2.178,0.631,3.374,1.145
		c19.445,8.343,33.178,22.364,41.38,41.823c1.822,4.322,0.647,7.733-2.975,9.311c-3.552,1.547-6.992-0.027-8.771-4.281
		c-6.945-16.61-18.732-28.367-35.259-35.412c-3.336-1.422-5.071-3.861-4.353-7.466C110.047,19.613,112.376,18.021,116.006,17.719z"
		/>
	<path fill-rule="evenodd" clip-rule="evenodd" fill="#0066FF" d="M161.703,116.034c0.069,0.554-0.552,1.759-1.067,2.956
		c-8.3,19.277-22.048,33.154-41.32,41.502c-4.421,1.916-8.209,0.75-9.706-2.822c-1.56-3.723,0.093-6.871,4.729-8.92
		c16.162-7.145,27.778-18.753,34.641-35.093c1.644-3.916,4.374-5.517,7.632-4.698C159.826,109.767,161.472,111.899,161.703,116.034z
		"/>
	<path fill-rule="evenodd" clip-rule="evenodd" fill="#0066FF" d="M24.007,109.11c3-0.018,4.97,1.51,6.091,4.183
		c7.009,16.72,18.807,28.636,35.53,35.719c4.117,1.744,5.514,5.033,4.078,8.574c-1.441,3.553-5.121,4.874-9.264,3.11
		c-19.589-8.34-33.574-22.335-41.898-41.922C16.379,113.68,19.055,109.158,24.007,109.11z"/>
	<path fill-rule="evenodd" clip-rule="evenodd" fill="#FFFFFF" d="M89.817,51.311c21.113,0.097,38.242,17.244,38.266,38.308
		c0.024,21.066-17.641,38.661-38.629,38.474c-21.286-0.189-38.346-17.554-38.143-38.826C51.514,68.077,68.622,51.213,89.817,51.311z
		"/>
	<path fill-rule="evenodd" clip-rule="evenodd" fill="#0066FF" d="M69.962,24.027c-0.023,2.954-1.422,4.989-4.126,6.13
		c-16.825,7.1-28.725,19.069-35.803,35.919c-1.562,3.718-5.076,4.995-8.458,3.562c-3.241-1.373-4.761-4.951-3.241-8.608
		c8.338-20.055,22.579-34.308,42.621-42.646C65.529,16.48,69.884,19.425,69.962,24.027z"/>
	<path fill-rule="evenodd" clip-rule="evenodd" fill="#FFFFFF" d="M254.03,250.682c2.282-0.844,3.884-0.175,5.402,0.518
		c5.889,2.68,11.113,1.354,15.641-2.819c2.697-2.486,5.042-5.371,7.42-8.184c2.444-2.892,5.083-4.854,9.152-5.431
		c5.694-0.808,11.206-2.821,16.87-3.951c4.265-0.851,8.684-1.165,12.791,0.848c3.68,1.803,3.873,3.103,1.044,6.054
		c-3.1,3.232-6.357,6.314-9.406,9.593c-3.346,3.6-5.681,7.813-7.497,12.407c-4.02,10.167-16.632,13.259-25.103,6.352
		C272.546,259.708,263.351,255.69,254.03,250.682z"/>
	<path fill-rule="evenodd" clip-rule="evenodd" fill="#FFFFFF" d="M219.889,337.572c-0.969-0.057-1.626-0.061-2.274-0.139
		c-4.725-0.557-5.456-1.975-3.133-6.068c0.322-0.566,0.647-1.141,1.047-1.65c1.739-2.223,3.871-6.07,6.097-5.193
		c3.103,1.221,4.661,5.41,4.677,8.939C226.319,337.701,222.422,337.117,219.889,337.572z"/>
	<path fill-rule="evenodd" clip-rule="evenodd" fill="#0066FF" d="M64.089,89.542c0.031-14.206,11.453-25.506,25.719-25.446
		c14.02,0.059,25.289,11.348,25.381,25.422c0.092,14.143-11.398,25.692-25.549,25.681C75.438,115.187,64.058,103.76,64.089,89.542z"
		/>
	<path fill-rule="evenodd" clip-rule="evenodd" fill="#FFFFFF" d="M102.341,89.532c0.045,7.154-5.497,12.781-12.631,12.824
		c-7.069,0.042-12.833-5.618-12.874-12.64c-0.04-7.044,5.655-12.823,12.688-12.876S102.295,82.469,102.341,89.532z"/>
</g>
<g>
	<path fill="#0066FF" d="M63.647,409.53c0-4.207,1.172-7.482,3.516-9.826s5.607-3.516,9.791-3.516c4.289,0,7.594,1.151,9.914,3.454
		s3.48,5.528,3.48,9.677c0,3.012-0.507,5.481-1.521,7.409s-2.479,3.428-4.395,4.5s-4.304,1.608-7.163,1.608
		c-2.906,0-5.312-0.463-7.216-1.389s-3.448-2.391-4.632-4.395S63.647,412.542,63.647,409.53z M71.61,409.565
		c0,2.602,0.483,4.471,1.45,5.607s2.282,1.705,3.946,1.705c1.711,0,3.035-0.557,3.973-1.67s1.406-3.111,1.406-5.994
		c0-2.426-0.489-4.198-1.468-5.317s-2.306-1.679-3.981-1.679c-1.605,0-2.895,0.568-3.867,1.705S71.61,406.94,71.61,409.565z"/>
	<path fill="#0066FF" d="M94.602,396.627h13.236c2.883,0,5.042,0.686,6.478,2.057s2.153,3.322,2.153,5.854
		c0,2.602-0.782,4.635-2.347,6.1s-3.952,2.197-7.163,2.197H102.6v9.563h-7.998V396.627z M102.6,407.614h1.951
		c1.535,0,2.613-0.267,3.234-0.8s0.932-1.216,0.932-2.048c0-0.809-0.27-1.494-0.809-2.057s-1.553-0.844-3.041-0.844H102.6V407.614z"
		/>
	<path fill="#0066FF" d="M137.792,411.85l6.979,2.109c-0.469,1.957-1.207,3.592-2.215,4.904s-2.259,2.303-3.753,2.971
		s-3.396,1.002-5.704,1.002c-2.801,0-5.089-0.407-6.864-1.221c-1.775-0.814-3.308-2.245-4.597-4.295s-1.934-4.673-1.934-7.87
		c0-4.263,1.134-7.539,3.401-9.828c2.268-2.29,5.476-3.435,9.624-3.435c3.246,0,5.798,0.656,7.655,1.969s3.237,3.328,4.14,6.047
		l-7.031,1.564c-0.246-0.785-0.504-1.359-0.773-1.723c-0.445-0.609-0.99-1.078-1.635-1.406s-1.365-0.492-2.162-0.492
		c-1.805,0-3.188,0.726-4.148,2.177c-0.727,1.077-1.09,2.769-1.09,5.074c0,2.856,0.434,4.813,1.301,5.873s2.086,1.589,3.656,1.589
		c1.523,0,2.675-0.428,3.454-1.283S137.44,413.479,137.792,411.85z"/>
	<path fill="#0066FF" d="M148.954,396.627h7.98v25.77h-7.98V396.627z"/>
	<path fill="#0066FF" d="M161.645,409.53c0-4.207,1.172-7.482,3.516-9.826s5.607-3.516,9.791-3.516c4.289,0,7.594,1.151,9.914,3.454
		s3.48,5.528,3.48,9.677c0,3.012-0.507,5.481-1.521,7.409s-2.479,3.428-4.395,4.5s-4.304,1.608-7.163,1.608
		c-2.906,0-5.312-0.463-7.216-1.389s-3.448-2.391-4.632-4.395S161.645,412.542,161.645,409.53z M169.608,409.565
		c0,2.602,0.483,4.471,1.45,5.607s2.282,1.705,3.946,1.705c1.711,0,3.035-0.557,3.973-1.67s1.406-3.111,1.406-5.994
		c0-2.426-0.489-4.198-1.468-5.317s-2.306-1.679-3.981-1.679c-1.605,0-2.895,0.568-3.867,1.705S169.608,406.94,169.608,409.565z"/>
	<path fill="#0066FF" d="M192.688,396.627h7.436l9.703,14.257v-14.257h7.506v25.77h-7.506l-9.65-14.149v14.149h-7.488V396.627z"/>
	<path fill="#0066FF" d="M222.606,396.627h21.34v5.502h-13.359v4.096h12.393v5.256h-12.393v5.08h13.746v5.836h-21.727V396.627z"/>
	<path fill="#0066FF" d="M247.233,413.872l7.576-0.475c0.164,1.23,0.498,2.168,1.002,2.813c0.82,1.043,1.992,1.564,3.516,1.564
		c1.137,0,2.012-0.267,2.627-0.8s0.924-1.151,0.924-1.854c0-0.668-0.293-1.266-0.879-1.793s-1.945-1.025-4.079-1.494
		c-3.492-0.785-5.982-1.828-7.471-3.129c-1.5-1.301-2.25-2.959-2.25-4.975c0-1.324,0.384-2.575,1.151-3.753s1.922-2.104,3.463-2.777
		s3.653-1.011,6.337-1.011c3.293,0,5.803,0.612,7.531,1.837s2.758,3.173,3.086,5.845l-7.506,0.439
		c-0.199-1.16-0.619-2.004-1.258-2.531s-1.52-0.791-2.645-0.791c-0.926,0-1.623,0.196-2.092,0.589s-0.703,0.87-0.703,1.433
		c0,0.41,0.193,0.779,0.58,1.107c0.375,0.34,1.266,0.656,2.672,0.949c3.48,0.75,5.973,1.509,7.479,2.276s2.602,1.72,3.287,2.856
		s1.029,2.408,1.029,3.814c0,1.652-0.457,3.176-1.371,4.57s-2.191,2.452-3.832,3.173s-3.709,1.081-6.205,1.081
		c-4.383,0-7.418-0.844-9.106-2.531S247.456,416.473,247.233,413.872z"/>
	<path fill="#0066FF" d="M286.731,396.627h11.83c2.332,0,4.215,0.316,5.65,0.949s2.623,1.541,3.561,2.725s1.617,2.561,2.039,4.131
		s0.633,3.234,0.633,4.992c0,2.754-0.314,4.89-0.941,6.407s-1.496,2.789-2.609,3.814s-2.309,1.708-3.586,2.048
		c-1.746,0.469-3.328,0.703-4.746,0.703h-11.83V396.627z M294.694,402.463v14.08h1.951c1.664,0,2.848-0.185,3.551-0.554
		s1.254-1.014,1.652-1.934s0.598-2.411,0.598-4.474c0-2.73-0.445-4.6-1.336-5.607s-2.367-1.512-4.43-1.512H294.694z"/>
	<path fill="#0066FF" d="M314.61,396.627h21.34v5.502h-13.359v4.096h12.393v5.256h-12.393v5.08h13.746v5.836H314.61V396.627z"/>
	<path fill="#0066FF" d="M44.891,457.072l7.576-0.475c0.164,1.23,0.498,2.168,1.002,2.813c0.82,1.043,1.992,1.564,3.516,1.564
		c1.137,0,2.013-0.267,2.628-0.8s0.923-1.151,0.923-1.854c0-0.668-0.293-1.266-0.879-1.793s-1.945-1.025-4.078-1.494
		c-3.492-0.785-5.982-1.828-7.471-3.129c-1.5-1.301-2.25-2.959-2.25-4.975c0-1.324,0.384-2.575,1.151-3.753s1.922-2.104,3.463-2.777
		s3.653-1.011,6.337-1.011c3.293,0,5.804,0.612,7.532,1.837s2.757,3.173,3.085,5.845l-7.506,0.439
		c-0.199-1.16-0.618-2.004-1.257-2.531s-1.521-0.791-2.646-0.791c-0.926,0-1.623,0.196-2.092,0.589s-0.703,0.87-0.703,1.433
		c0,0.41,0.193,0.779,0.58,1.107c0.375,0.34,1.266,0.656,2.672,0.949c3.48,0.75,5.974,1.509,7.479,2.276s2.602,1.72,3.287,2.856
		s1.028,2.408,1.028,3.814c0,1.652-0.457,3.176-1.371,4.57s-2.191,2.452-3.832,3.173s-3.709,1.081-6.205,1.081
		c-4.383,0-7.418-0.844-9.105-2.531S45.114,459.673,44.891,457.072z"/>
	<path fill="#0066FF" d="M72.26,439.828H93.6v5.502H80.241v4.096h12.393v5.256H80.241v5.08h13.746v5.836H72.26V439.828z"/>
	<path fill="#0066FF" d="M111.231,456.263v-5.361h12.305v10.986c-2.355,1.605-4.438,2.698-6.249,3.278s-3.958,0.87-6.442,0.87
		c-3.059,0-5.552-0.521-7.479-1.564s-3.422-2.596-4.482-4.658s-1.591-4.43-1.591-7.102c0-2.813,0.58-5.259,1.74-7.339
		s2.859-3.659,5.098-4.737c1.746-0.832,4.096-1.248,7.049-1.248c2.848,0,4.978,0.258,6.39,0.773s2.584,1.315,3.516,2.399
		s1.632,2.458,2.101,4.122l-7.682,1.371c-0.316-0.973-0.853-1.717-1.608-2.232s-1.72-0.773-2.892-0.773
		c-1.746,0-3.138,0.606-4.175,1.819s-1.556,3.132-1.556,5.757c0,2.789,0.524,4.781,1.573,5.977s2.511,1.793,4.386,1.793
		c0.891,0,1.74-0.129,2.549-0.387s1.734-0.697,2.777-1.318v-2.426H111.231z"/>
	<path fill="#0066FF" d="M145.034,439.828h7.945v15.354c0,1.522-0.237,2.96-0.712,4.313s-1.219,2.535-2.232,3.548
		s-2.077,1.725-3.19,2.135c-1.547,0.573-3.404,0.86-5.572,0.86c-1.254,0-2.622-0.088-4.104-0.264s-2.722-0.523-3.718-1.045
		s-1.907-1.262-2.733-2.222c-0.826-0.961-1.392-1.95-1.696-2.97c-0.492-1.639-0.738-3.091-0.738-4.355v-15.354h7.945v15.719
		c0,1.405,0.39,2.503,1.169,3.293c0.779,0.791,1.86,1.186,3.243,1.186c1.371,0,2.446-0.39,3.226-1.168s1.169-1.882,1.169-3.311
		V439.828z"/>
	<path fill="#0066FF" d="M158.569,439.828h7.98v25.77h-7.98V439.828z"/>
	<path fill="#0066FF" d="M172.174,439.828h10.472l4.039,15.68l4.01-15.68h10.466v25.77h-6.521v-19.652l-5.025,19.652h-5.903
		l-5.016-19.652v19.652h-6.521V439.828z"/>
	<path fill="#0066FF" d="M206.557,439.828h7.98v25.77h-7.98V439.828z"/>
	<path fill="#0066FF" d="M220.233,439.828h21.34v5.502h-13.359v4.096h12.393v5.256h-12.393v5.08h13.746v5.836h-21.727V439.828z"/>
	<path fill="#0066FF" d="M246.301,439.828h7.436l9.704,14.257v-14.257h7.506v25.77h-7.506l-9.651-14.149v14.149h-7.488V439.828z"/>
	<path fill="#0066FF" d="M274.427,439.828h24.205v6.363h-8.121v19.406h-7.963v-19.406h-8.121V439.828z"/>
	<path fill="#0066FF" d="M300.003,452.73c0-4.207,1.172-7.482,3.516-9.826s5.607-3.516,9.791-3.516c4.289,0,7.594,1.151,9.914,3.454
		s3.48,5.528,3.48,9.677c0,3.012-0.508,5.481-1.521,7.409s-2.479,3.428-4.395,4.5s-4.303,1.608-7.162,1.608
		c-2.906,0-5.313-0.463-7.217-1.389s-3.447-2.391-4.631-4.395S300.003,455.742,300.003,452.73z M307.966,452.765
		c0,2.602,0.482,4.471,1.449,5.607s2.283,1.705,3.947,1.705c1.711,0,3.035-0.557,3.973-1.67s1.406-3.111,1.406-5.994
		c0-2.426-0.49-4.198-1.469-5.317s-2.305-1.679-3.98-1.679c-1.605,0-2.895,0.568-3.867,1.705S307.966,450.14,307.966,452.765z"/>
	<path fill="#0066FF" d="M340.397,439.828h8.845l5.192,8.693l5.202-8.693h8.798l-10.02,14.977v10.793h-7.98v-10.793L340.397,439.828
		z"/>
	<path fill="#0066FF" d="M27.234,499.463v-5.361h12.305v10.986c-2.355,1.605-4.438,2.698-6.249,3.278s-3.958,0.87-6.442,0.87
		c-3.059,0-5.552-0.521-7.479-1.564s-3.422-2.596-4.482-4.658s-1.591-4.43-1.591-7.102c0-2.813,0.58-5.259,1.74-7.339
		s2.859-3.659,5.098-4.737c1.746-0.832,4.096-1.248,7.049-1.248c2.848,0,4.978,0.258,6.39,0.773s2.584,1.315,3.516,2.399
		s1.632,2.458,2.101,4.122l-7.682,1.371c-0.316-0.973-0.853-1.717-1.608-2.232s-1.72-0.773-2.892-0.773
		c-1.746,0-3.138,0.606-4.175,1.819s-1.556,3.132-1.556,5.757c0,2.789,0.524,4.781,1.573,5.977s2.511,1.793,4.386,1.793
		c0.891,0,1.74-0.129,2.549-0.387s1.734-0.697,2.777-1.318v-2.426H27.234z"/>
	<path fill="#0066FF" d="M44.25,483.028h21.34v5.502H52.23v4.096h12.393v5.256H52.23v5.08h13.746v5.836H44.25V483.028z"/>
	<path fill="#0066FF" d="M69.263,495.93c0-4.207,1.172-7.482,3.516-9.826s5.607-3.516,9.791-3.516c4.289,0,7.594,1.151,9.914,3.454
		s3.48,5.528,3.48,9.677c0,3.012-0.507,5.481-1.521,7.409s-2.479,3.428-4.395,4.5s-4.304,1.608-7.163,1.608
		c-2.906,0-5.312-0.463-7.216-1.389s-3.448-2.391-4.632-4.395S69.263,498.942,69.263,495.93z M77.226,495.965
		c0,2.602,0.483,4.471,1.45,5.607s2.282,1.705,3.946,1.705c1.711,0,3.035-0.557,3.973-1.67s1.406-3.111,1.406-5.994
		c0-2.426-0.489-4.198-1.468-5.317s-2.306-1.679-3.981-1.679c-1.605,0-2.895,0.568-3.867,1.705S77.226,493.34,77.226,495.965z"/>
	<path fill="#0066FF" d="M100.253,483.028h7.963v19.424h12.428v6.346h-20.391V483.028z"/>
	<path fill="#0066FF" d="M122.648,495.93c0-4.207,1.172-7.482,3.516-9.826s5.607-3.516,9.791-3.516c4.289,0,7.594,1.151,9.914,3.454
		s3.48,5.528,3.48,9.677c0,3.012-0.507,5.481-1.521,7.409s-2.479,3.428-4.395,4.5s-4.304,1.608-7.163,1.608
		c-2.906,0-5.312-0.463-7.216-1.389s-3.448-2.391-4.632-4.395S122.648,498.942,122.648,495.93z M130.611,495.965
		c0,2.602,0.483,4.471,1.45,5.607s2.282,1.705,3.946,1.705c1.711,0,3.035-0.557,3.973-1.67s1.406-3.111,1.406-5.994
		c0-2.426-0.489-4.198-1.468-5.317s-2.306-1.679-3.981-1.679c-1.605,0-2.895,0.568-3.867,1.705S130.611,493.34,130.611,495.965z"/>
	<path fill="#0066FF" d="M170.794,498.25l6.979,2.109c-0.469,1.957-1.207,3.592-2.215,4.904s-2.259,2.303-3.753,2.971
		s-3.396,1.002-5.704,1.002c-2.801,0-5.089-0.407-6.864-1.221c-1.775-0.814-3.308-2.245-4.597-4.295s-1.934-4.673-1.934-7.87
		c0-4.263,1.134-7.539,3.401-9.828c2.268-2.29,5.476-3.435,9.624-3.435c3.246,0,5.798,0.656,7.655,1.969s3.237,3.328,4.14,6.047
		l-7.031,1.564c-0.246-0.785-0.504-1.359-0.773-1.723c-0.445-0.609-0.99-1.078-1.635-1.406s-1.365-0.492-2.162-0.492
		c-1.805,0-3.188,0.726-4.148,2.177c-0.727,1.077-1.09,2.769-1.09,5.074c0,2.856,0.434,4.813,1.301,5.873s2.086,1.589,3.656,1.589
		c1.523,0,2.675-0.428,3.454-1.283S170.443,499.879,170.794,498.25z"/>
	<path fill="#0066FF" d="M197.483,504.543h-9.041l-1.256,4.254h-8.13l9.686-25.77h8.686l9.684,25.77h-8.339L197.483,504.543z
		 M195.831,498.971l-2.844-9.264l-2.814,9.264H195.831z"/>
	<path fill="#0066FF" d="M209.642,483.028h7.963v19.424h12.428v6.346h-20.391V483.028z"/>
	<path fill="#0066FF" d="M233.97,483.028h7.98v25.77h-7.98V483.028z"/>
	<path fill="#0066FF" d="M247.013,483.028h22.535v5.15l-14.465,15.082h14.993v5.537h-24.451v-5.344l14.314-14.924h-12.925V483.028z"
		/>
	<path fill="#0066FF" d="M289.505,504.543h-9.041l-1.256,4.254h-8.131l9.686-25.77h8.686l9.684,25.77h-8.338L289.505,504.543z
		 M287.853,498.971l-2.844-9.264l-2.814,9.264H287.853z"/>
	<path fill="#0066FF" d="M318.169,498.25l6.979,2.109c-0.469,1.957-1.207,3.592-2.215,4.904s-2.258,2.303-3.752,2.971
		s-3.396,1.002-5.705,1.002c-2.801,0-5.088-0.407-6.863-1.221c-1.775-0.814-3.309-2.245-4.598-4.295s-1.934-4.673-1.934-7.87
		c0-4.263,1.135-7.539,3.402-9.828c2.268-2.29,5.475-3.435,9.623-3.435c3.246,0,5.799,0.656,7.656,1.969s3.236,3.328,4.139,6.047
		l-7.031,1.564c-0.246-0.785-0.504-1.359-0.773-1.723c-0.445-0.609-0.99-1.078-1.635-1.406s-1.365-0.492-2.162-0.492
		c-1.805,0-3.188,0.726-4.148,2.177c-0.727,1.077-1.09,2.769-1.09,5.074c0,2.856,0.434,4.813,1.301,5.873s2.086,1.589,3.656,1.589
		c1.523,0,2.676-0.428,3.455-1.283S317.817,499.879,318.169,498.25z"/>
	<path fill="#0066FF" d="M329.331,483.028h7.98v25.77h-7.98V483.028z"/>
	<path fill="#0066FF" d="M342.022,495.93c0-4.207,1.172-7.482,3.516-9.826s5.607-3.516,9.791-3.516c4.289,0,7.594,1.151,9.914,3.454
		s3.48,5.528,3.48,9.677c0,3.012-0.506,5.481-1.52,7.409s-2.479,3.428-4.395,4.5s-4.305,1.608-7.164,1.608
		c-2.906,0-5.311-0.463-7.215-1.389s-3.449-2.391-4.633-4.395S342.022,498.942,342.022,495.93z M349.985,495.965
		c0,2.602,0.484,4.471,1.451,5.607s2.281,1.705,3.945,1.705c1.711,0,3.035-0.557,3.973-1.67s1.406-3.111,1.406-5.994
		c0-2.426-0.488-4.198-1.467-5.317s-2.307-1.679-3.982-1.679c-1.605,0-2.895,0.568-3.867,1.705S349.985,493.34,349.985,495.965z"/>
	<path fill="#0066FF" d="M373.065,483.028h7.436l9.703,14.257v-14.257h7.506v25.77h-7.506l-9.65-14.149v14.149h-7.488V483.028z"/>
</g>
</svg>
