<?xml version="1.0" encoding="utf-8"?>
<!-- Generator: Adobe Illustrator 16.0.0, SVG Export Plug-In . SVG Version: 6.00 Build 0)  -->
<!DOCTYPE svg PUBLIC "-//W3C//DTD SVG 1.1//EN" "http://www.w3.org/Graphics/SVG/1.1/DTD/svg11.dtd">
<svg version="1.1" id="Capa_1" xmlns="http://www.w3.org/2000/svg" xmlns:xlink="http://www.w3.org/1999/xlink" x="0px" y="0px"
	 width="421.461px" height="550.841px" viewBox="0 0 421.461 550.841" enable-background="new 0 0 421.461 550.841"
	 xml:space="preserve">
<g>
	<g id="XMLID_1_">
		<g>
			<path fill="#0066FF" d="M403.805,0.251c1.71-0.02,2.061,0.33,2.03,2.03c-0.11,8.32-0.05,16.63-0.05,24.95
				c-0.87-1.64-2.061-3.01-3.37-4.31c-6.44-6.39-12.851-12.81-19.24-19.24c-1.31-1.32-2.68-2.51-4.32-3.38
				C387.175,0.301,395.496,0.361,403.805,0.251z"/>
			<path fill="#0066FF" d="M405.786,321.071c0,1.32,0,2.64,0,3.96c-0.131,0.04-0.271,0.07-0.41,0.09c0.01-0.16,0-0.32,0-0.479
				c0.01-1.11,0-2.21,0-3.32C405.536,321.351,405.666,321.26,405.786,321.071z"/>
			<path fill="#0066FF" d="M405.786,317.111c0,1.32,0,2.64,0,3.96c-0.141,0.02-0.28,0.05-0.41,0.08c0-0.01,0-0.01,0-0.021
				C405.565,319.8,404.956,318.38,405.786,317.111z"/>
			<path fill="#0066FF" d="M405.786,314.731c0,0.8,0,1.59,0,2.38c-1.301,1.189-0.69,2.7-0.681,4.1c0,1.311,0,2.63-0.01,3.94
				c0.1,0,0.19-0.01,0.28-0.03c0.09,6.13-1.24,11.96-3.73,17.55c-1.67,3.771-2.71,4.051-5.649,1.21
				c-5.391-5.229-10.641-10.6-15.96-15.909c-7.46-7.461-14.9-14.921-22.37-22.36c-3.271-3.271-3.44-3.271-6.601-0.12
				c-8.12,8.1-16.229,16.2-24.319,24.33c-3.011,3.02-3.021,3.24,0.04,6.31c12.01,12.04,24.04,24.051,36.06,36.07
				c0.84,0.84,1.71,1.65,2.5,2.54c2.61,2.89,2.44,3.89-1.08,5.45c-5.35,2.38-10.92,3.84-16.82,3.85c-0.88,0-1.85-0.319-2.64,0.391
				c-0.53,0-1.06,0-1.59,0c-1.58-1.33-3.16-1.091-4.75,0c-2.9,0-5.811,0-8.71,0c-6.561-2.08-13.37-3.21-19.73-6.141
				c-32.569-15.03-47.75-53.569-33.76-86.59c1.2-2.82,0.78-4.28-1.28-6.34c-51.56-51.43-103.06-102.92-154.49-154.48
				c-2.03-2.03-3.5-2.14-6.04-1.08c-39.72,16.58-84.67-8.22-91.89-50.59c-0.15-0.91-0.14-1.84-0.21-2.76
				c0.24-1.69,0.44-3.37-0.7-4.87c0-1.32,0-2.64,0-3.96c1.31-1.18,0.68-2.7,0.7-4.1c0-1.32-0.01-2.63-0.01-3.94
				c-0.09,0-0.19,0-0.28,0.02c-0.09-6.11,1.25-11.94,3.73-17.53c1.68-3.77,2.72-4.06,5.65-1.21c5.48,5.32,10.83,10.78,16.24,16.18
				c7.36,7.36,14.71,14.73,22.08,22.08c3.3,3.28,3.45,3.28,6.6,0.14c8.12-8.09,16.23-16.2,24.32-24.32c3.04-3.05,3.04-3.26,0.01-6.3
				c-12.38-12.41-24.79-24.79-37.17-37.19c-4.44-4.45-4.25-5.31,1.58-7.7c5.13-2.1,10.45-3.12,15.98-3.04
				c-0.02,0.1-0.08,0.19-0.15,0.29c1.7,0.29,3.39,0.47,4.88-0.7c2.37,0,4.75,0,7.12,0c1.5,1.1,3.19,0.91,4.87,0.69
				c26.43,2,51.47,24.88,56.95,51.8c2.88,14.12,1.77,27.79-3.95,41c-1,2.3-0.39,3.49,1.17,5.04c10.88,10.76,21.67,21.61,32.5,32.43
				c40.67,40.68,81.36,81.33,121.97,122.07c2.23,2.23,3.82,2.76,6.98,1.45c40.55-16.83,85.85,9.52,91.67,53.16
				c0.07,0.53,0.09,1.04,0.69,1.25c0,0.26,0,0.53,0,0.79C404.355,311.571,404.706,313.151,405.786,314.731z"/>
			<path fill="#0066FF" d="M405.786,309.981c0,1.59,0,3.17,0,4.75C405.145,313.151,405.145,311.571,405.786,309.981z"/>
			<path fill="#0066FF" d="M405.786,27.231c0,0.53,0,1.06,0,1.58l-28.511-28.51c0.53,0,1.061,0,1.58,0
				C387.475,9.641,396.456,18.611,405.786,27.231z"/>
			<path fill="#0066FF" d="M405.786,28.811c-1.86-0.17-2.04,1.42-2.46,2.55c-2.73,7.29-5.61,14.52-8.391,21.79
				c-4.859,12.7-9.689,25.4-14.68,38.04c-1.41,3.59-1.69,3.62-4.45,0.91c-3.39-3.32-6.729-6.71-10.09-10.07
				c-5.47-5.46-5.47-5.46-11.05,0.12c-29.771,29.77-59.54,59.54-89.32,89.31c-3.7,3.7-3.72,3.69-7.44-0.03
				c-7.659-7.65-15.31-15.31-22.96-22.96c-4.01-4.01-4.02-4.02-0.029-8.01c23.14-23.14,46.279-46.29,69.43-69.43
				c7.09-7.1,14.2-14.17,21.271-21.29c3.579-3.6,3.579-4.15,0.119-7.68c-3.52-3.58-7.09-7.1-10.64-10.65
				c-4.06-4.06-4.08-4.12,1.26-6.18c19.21-7.41,38.42-14.79,57.63-22.19c1.351-0.52,3.24-0.58,3.29-2.74L405.786,28.811z"/>
			<path fill="#0066FF" d="M403.326,31.361c0.42-1.13,0.6-2.72,2.46-2.55c-4.71,9.67-7.95,19.93-11.891,29.9
				c-4.92,12.44-9.64,24.96-14.649,37.96c-5.58-5.59-11.011-10.77-16.11-16.25c-2.18-2.34-3.29-2.46-5.67-0.07
				c-30.97,31.17-62.11,62.18-93.1,93.34c-2.271,2.28-3.381,2.49-5.721,0.06c-8.689-9.03-17.569-17.89-26.58-26.6
				c-2.239-2.16-1.91-3.15,0.09-5.14c31.23-31.1,62.351-62.32,93.61-93.38c2.43-2.41,2.2-3.53-0.11-5.69
				c-5.47-5.1-10.649-10.52-16.229-16.09c21.35-8.21,42.2-16.2,63.02-24.26c1.65-0.63,3.551-0.84,4.83-2.29
				c-0.05,2.16-1.939,2.22-3.29,2.74c-19.21,7.4-38.42,14.78-57.63,22.19c-5.34,2.06-5.319,2.12-1.26,6.18
				c3.55,3.55,7.12,7.07,10.64,10.65c3.46,3.53,3.46,4.08-0.119,7.68c-7.07,7.12-14.181,14.19-21.271,21.29
				c-23.15,23.14-46.29,46.29-69.43,69.43c-3.99,3.99-3.98,4,0.029,8.01c7.65,7.65,15.301,15.31,22.96,22.96
				c3.721,3.72,3.74,3.73,7.44,0.03c29.78-29.77,59.55-59.54,89.32-89.31c5.58-5.58,5.58-5.58,11.05-0.12
				c3.36,3.36,6.7,6.75,10.09,10.07c2.76,2.71,3.04,2.68,4.45-0.91c4.99-12.64,9.82-25.34,14.68-38.04
				C397.715,45.881,400.595,38.651,403.326,31.361z"/>
			<path fill="#0066FF" d="M405.375,321.151c0.13-0.03,0.27-0.061,0.41-0.08c-0.12,0.189-0.25,0.28-0.41,0.25
				C405.375,321.26,405.375,321.21,405.375,321.151z"/>
			<path fill="#0066FF" d="M405.786,317.111c-0.83,1.27-0.221,2.689-0.41,4.02c0,0.011,0,0.011,0,0.021
				c-0.09,0.02-0.181,0.04-0.271,0.06C405.095,319.811,404.485,318.3,405.786,317.111z"/>
			<path fill="#0066FF" d="M405.375,324.641c0,0.159,0.01,0.319,0,0.479c-0.09,0.021-0.181,0.03-0.28,0.03
				c0.01-1.311,0.01-2.63,0.01-3.94c0.101,0.07,0.181,0.11,0.271,0.11C405.375,322.431,405.385,323.531,405.375,324.641z"/>
			<path fill="#0066FF" d="M405.375,321.151c0,0.06,0,0.109,0,0.17c-0.09,0-0.17-0.04-0.271-0.11
				C405.195,321.191,405.286,321.17,405.375,321.151z"/>
			<path fill="#0066FF" d="M405.786,309.981c-0.641,1.59-0.641,3.17,0,4.75C404.706,313.151,404.355,311.571,405.786,309.981z"/>
			<path fill="#0066FF" d="M402.416,22.921c1.31,1.3,2.5,2.67,3.37,4.31c-9.33-8.62-18.311-17.59-26.931-26.93
				c1.641,0.87,3.011,2.06,4.32,3.38C389.565,10.111,395.975,16.531,402.416,22.921z"/>
			<path fill="#0066FF" d="M343.215,384.431c-1.58,0-3.16,0-4.75,0C340.055,383.791,341.635,383.791,343.215,384.431z"/>
			<path fill="#0066FF" d="M343.215,384.431c-1.58-0.641-3.16-0.641-4.75,0C340.055,383.34,341.635,383.101,343.215,384.431z"/>
			<path fill="#0066FF" d="M227.496,269.561c1.85,1.81,1.949,2.819,0,4.62c-4.16,3.85-8.11,7.93-12.04,12.02
				c-1.301,1.35-2.061,1.32-3.35-0.03c-3.83-4.01-7.93-7.76-11.66-11.85c-1.94-2.13-2.96-2.17-5.06-0.05
				c-26.32,26.489-52.75,52.859-79.15,79.26c-5.78,5.79-11.52,11.61-17.36,17.34c-7.14,7.021-15.5,11.71-25.6,12.88
				c-1.45-0.26-2.88-0.42-4.1,0.681c-3.16,0-6.33,0-9.5,0c-1.28-1.33-3.09-1.141-4.66-1.551c-17.15-4.439-31.13-20.25-32.71-37.069
				c0.28-1.46,0.4-2.891-0.65-4.15c0-1.58,0-3.16,0-4.75c1.01-1.24,0.95-2.66,0.67-4.11c1.11-9.52,5.22-17.67,11.85-24.409
				c15.08-15.33,30.35-30.471,45.55-45.68c17.35-17.36,34.66-34.76,52.12-52c2.16-2.13,2-3.16-0.09-5.07
				c-4.08-3.74-7.83-7.84-11.84-11.66c-1.38-1.31-1.33-2.07,0-3.35c3.99-3.83,8.02-7.66,11.72-11.77c2.04-2.27,3.13-2.06,5.19,0.02
				c22.59,22.75,45.29,45.39,67.96,68.06C212.345,254.491,219.835,262.111,227.496,269.561z M155.775,266.351
				c1.95-1.93,2.19-3.01,0.02-4.84c-2.5-2.13-4.68-4.64-7.04-6.94c-2.15-2.1-4.36-5.77-6.53-5.76c-2.2,0.01-4.45,3.61-6.58,5.74
				c-24.82,24.78-49.58,49.61-74.46,74.33c-2.05,2.04-2.3,3.091-0.04,5.13c4.02,3.601,7.69,7.591,11.54,11.391
				c0.62,0.6,1.03,1.55,2.71,1.64c0.42-0.52,1.02-1.399,1.76-2.14c9.12-9.15,18.26-18.28,27.39-27.42
				C121.615,300.42,138.635,283.331,155.775,266.351z"/>
			<path fill="#FFFFFF" d="M155.795,261.511c2.17,1.83,1.93,2.91-0.02,4.84c-17.14,16.98-34.16,34.07-51.23,51.13
				c-9.13,9.14-18.27,18.27-27.39,27.42c-0.74,0.74-1.34,1.62-1.76,2.14c-1.68-0.09-2.09-1.04-2.71-1.64
				c-3.85-3.8-7.52-7.79-11.54-11.391c-2.26-2.039-2.01-3.09,0.04-5.13c24.88-24.72,49.64-49.55,74.46-74.33
				c2.13-2.13,4.38-5.73,6.58-5.74c2.17-0.01,4.38,3.66,6.53,5.76C151.115,256.871,153.295,259.381,155.795,261.511z"/>
			<path fill="#0066FF" d="M97.695,0.301c-0.03,0.24,0.01,0.47,0.11,0.69c-1.54-0.78-3.35,0.3-4.87-0.69
				C94.525,0.301,96.105,0.301,97.695,0.301z"/>
			<path fill="#0066FF" d="M92.935,0.301c1.52,0.99,3.33-0.09,4.87,0.69C96.125,1.211,94.435,1.401,92.935,0.301z"/>
			<path fill="#0066FF" d="M81.055,0.301c1.59,0,3.17,0,4.76,0c-1.45,0.86-3.03,0.21-4.53,0.41c-0.07,0-0.13,0-0.2,0
				C81.115,0.581,81.105,0.441,81.055,0.301z"/>
			<path fill="#0066FF" d="M81.285,0.711c1.5-0.2,3.08,0.45,4.53-0.41c-1.49,1.17-3.18,0.99-4.88,0.7c0.07-0.1,0.13-0.19,0.15-0.29
				C81.155,0.711,81.215,0.711,81.285,0.711z"/>
			<path fill="#0066FF" d="M73.275,383.75c-0.09,0.221-0.14,0.45-0.14,0.681c-1.32,0-2.64,0-3.96,0
				C70.425,383.491,71.995,384.481,73.275,383.75z"/>
			<path fill="#0066FF" d="M73.275,383.75c-1.28,0.73-2.85-0.26-4.1,0.681C70.395,383.331,71.825,383.491,73.275,383.75z"/>
			<path fill="#0066FF" d="M59.675,384.431c-11.88,0-23.76-0.051-35.64,0.06c-1.98,0.01-2.45-0.45-2.43-2.43
				c0.11-12.15,0.05-24.29,0.05-36.44c0.14,0.04,0.27,0.08,0.41,0.12c-0.03,3.69,0.38,7.28,1.91,10.73
				C30.915,372.151,42.355,382.031,59.675,384.431z"/>
			<path fill="#0066FF" d="M55.015,382.88c1.57,0.41,3.38,0.221,4.66,1.551c-17.32-2.4-28.76-12.28-35.7-27.96
				c-1.53-3.45-1.94-7.04-1.91-10.73c0.08,0.03,0.16,0.05,0.24,0.07C23.885,362.63,37.865,378.441,55.015,382.88z"/>
			<path fill="#0066FF" d="M21.655,71.581c1.14,1.5,0.94,3.18,0.7,4.87C21.545,74.911,22.655,73.101,21.655,71.581z"/>
			<path fill="#0066FF" d="M22.325,332.8c0.28,1.45,0.34,2.87-0.67,4.11C22.595,335.661,21.625,334.09,22.325,332.8z"/>
			<path fill="#0066FF" d="M21.655,341.661c1.05,1.26,0.93,2.69,0.65,4.15c-0.05-0.271-0.14-0.41-0.27-0.42
				C21.965,344.141,22.415,342.84,21.655,341.661z"/>
			<path fill="#0066FF" d="M22.355,63.521c-0.02,1.4,0.61,2.92-0.7,4.1c0.77-1.17,0.31-2.46,0.38-3.71
				C22.165,63.911,22.275,63.781,22.355,63.521z"/>
			<path fill="#0066FF" d="M22.345,59.581c0,1.31,0.01,2.62,0.01,3.94c-0.1,0.02-0.19,0.05-0.29,0.07c0-1.17,0-2.33,0-3.5
				c0-0.16-0.01-0.33,0-0.49C22.155,59.581,22.255,59.581,22.345,59.581z"/>
			<path fill="#0066FF" d="M22.065,63.591c0.1-0.02,0.19-0.05,0.29-0.07c-0.08,0.26-0.19,0.39-0.32,0.39c0-0.1,0.01-0.21,0.03-0.31
				V63.591z"/>
			<path fill="#0066FF" d="M22.305,345.811c-0.08-0.021-0.16-0.04-0.24-0.07c0-0.01,0-0.02,0-0.03c-0.02-0.109-0.03-0.22-0.03-0.319
				C22.165,345.401,22.255,345.541,22.305,345.811z"/>
			<path fill="#0066FF" d="M21.655,332.951c0.18-0.24,0.4-0.29,0.67-0.15c-0.7,1.29,0.27,2.86-0.67,4.11
				C21.655,335.59,21.655,334.271,21.655,332.951z"/>
			<path fill="#0066FF" d="M22.065,345.71c0,0.011,0,0.021,0,0.03c-0.14-0.04-0.27-0.08-0.41-0.12c0.15-0.16,0.28-0.229,0.38-0.229
				C22.035,345.491,22.045,345.601,22.065,345.71z"/>
			<path fill="#0066FF" d="M22.065,63.591v0.01c-0.02,0.1-0.03,0.21-0.03,0.31c-0.11,0-0.24-0.09-0.38-0.25
				C21.795,63.641,21.935,63.621,22.065,63.591z"/>
			<path fill="#0066FF" d="M22.065,60.091c0,1.17,0,2.33,0,3.5c-0.13,0.03-0.27,0.05-0.41,0.07c0-1.32,0-2.64,0-3.96
				c0.13-0.05,0.27-0.09,0.41-0.1C22.055,59.761,22.065,59.931,22.065,60.091z"/>
			<path fill="#0066FF" d="M21.655,71.581c1,1.52-0.11,3.33,0.7,4.87c-0.23-0.06-0.46-0.09-0.7-0.11
				C21.655,74.751,21.655,73.171,21.655,71.581z"/>
			<path fill="#0066FF" d="M22.035,63.911c-0.07,1.25,0.39,2.54-0.38,3.71c0-1.32,0-2.64,0-3.96
				C21.795,63.821,21.925,63.911,22.035,63.911z"/>
			<path fill="#0066FF" d="M21.655,341.661c0.76,1.18,0.31,2.48,0.38,3.73c-0.1,0-0.23,0.069-0.38,0.229
				C21.655,344.3,21.655,342.981,21.655,341.661z"/>
		</g>
		<g>
		</g>
	</g>
</g>
<g>
	<path fill="#0066FF" d="M80.117,413.943h26.895v7.07h-9.023v21.563h-8.848v-21.563h-9.023V413.943z"/>
	<path fill="#0066FF" d="M108.535,428.279c0-4.675,1.302-8.313,3.906-10.918c2.604-2.604,6.23-3.906,10.879-3.906
		c4.766,0,8.438,1.279,11.016,3.838s3.867,6.143,3.867,10.752c0,3.347-0.563,6.091-1.689,8.232c-1.126,2.142-2.754,3.809-4.883,5
		s-4.782,1.787-7.959,1.787c-3.229,0-5.902-0.515-8.018-1.543c-2.116-1.028-3.832-2.656-5.146-4.883
		C109.192,434.412,108.535,431.625,108.535,428.279z M117.383,428.318c0,2.891,0.537,4.968,1.611,6.23s2.536,1.895,4.385,1.895
		c1.901,0,3.372-0.618,4.414-1.855c1.042-1.237,1.563-3.457,1.563-6.66c0-2.695-0.544-4.665-1.631-5.908
		c-1.087-1.243-2.562-1.865-4.424-1.865c-1.784,0-3.216,0.632-4.297,1.895C117.923,423.311,117.383,425.401,117.383,428.318z"/>
	<path fill="#0066FF" d="M143.086,413.943h13.145c2.591,0,4.684,0.352,6.279,1.055c1.595,0.703,2.913,1.712,3.955,3.027
		c1.042,1.315,1.797,2.845,2.266,4.59s0.703,3.594,0.703,5.547c0,3.06-0.349,5.433-1.045,7.119c-0.697,1.687-1.664,3.099-2.9,4.238
		c-1.237,1.14-2.565,1.897-3.984,2.275c-1.94,0.521-3.698,0.781-5.273,0.781h-13.145V413.943z M151.934,420.427v15.645h2.168
		c1.849,0,3.164-0.205,3.945-0.615s1.393-1.126,1.836-2.148c0.442-1.022,0.664-2.679,0.664-4.971c0-3.034-0.495-5.11-1.484-6.23
		c-0.99-1.12-2.63-1.68-4.922-1.68H151.934z"/>
	<path fill="#0066FF" d="M172.969,428.279c0-4.675,1.302-8.313,3.906-10.918c2.604-2.604,6.23-3.906,10.879-3.906
		c4.766,0,8.438,1.279,11.016,3.838s3.867,6.143,3.867,10.752c0,3.347-0.563,6.091-1.689,8.232c-1.126,2.142-2.754,3.809-4.883,5
		s-4.782,1.787-7.959,1.787c-3.229,0-5.902-0.515-8.018-1.543c-2.116-1.028-3.832-2.656-5.146-4.883
		C173.626,434.412,172.969,431.625,172.969,428.279z M181.816,428.318c0,2.891,0.537,4.968,1.611,6.23s2.536,1.895,4.385,1.895
		c1.901,0,3.372-0.618,4.414-1.855c1.042-1.237,1.563-3.457,1.563-6.66c0-2.695-0.544-4.665-1.631-5.908
		c-1.087-1.243-2.562-1.865-4.424-1.865c-1.784,0-3.216,0.632-4.297,1.895C182.356,423.311,181.816,425.401,181.816,428.318z"/>
	<path fill="#0066FF" d="M205.859,433.103l8.418-0.527c0.182,1.367,0.553,2.409,1.113,3.125c0.91,1.159,2.213,1.738,3.906,1.738
		c1.262,0,2.236-0.296,2.92-0.889s1.025-1.279,1.025-2.061c0-0.742-0.326-1.406-0.977-1.992c-0.652-0.586-2.162-1.14-4.531-1.66
		c-3.881-0.872-6.648-2.031-8.301-3.477c-1.667-1.445-2.5-3.288-2.5-5.527c0-1.472,0.426-2.861,1.279-4.17
		c0.853-1.309,2.135-2.337,3.848-3.086c1.712-0.749,4.059-1.123,7.042-1.123c3.658,0,6.447,0.681,8.369,2.041
		c1.92,1.36,3.063,3.525,3.428,6.494l-8.34,0.488c-0.223-1.289-0.688-2.227-1.396-2.813c-0.711-0.586-1.689-0.879-2.939-0.879
		c-1.029,0-1.805,0.218-2.324,0.654c-0.521,0.437-0.781,0.967-0.781,1.592c0,0.456,0.215,0.866,0.645,1.23
		c0.416,0.378,1.406,0.729,2.969,1.055c3.867,0.833,6.637,1.677,8.311,2.529c1.672,0.853,2.891,1.911,3.652,3.174
		s1.143,2.676,1.143,4.238c0,1.836-0.508,3.528-1.523,5.078s-2.436,2.725-4.258,3.525c-1.824,0.801-4.121,1.201-6.895,1.201
		c-4.871,0-8.243-0.938-10.118-2.813S206.106,435.994,205.859,433.103z"/>
	<path fill="#0066FF" d="M249.629,413.943h8.848v21.582h13.809v7.051h-22.656V413.943z"/>
	<path fill="#0066FF" d="M274.512,428.279c0-4.675,1.301-8.313,3.906-10.918c2.604-2.604,6.23-3.906,10.879-3.906
		c4.766,0,8.438,1.279,11.016,3.838s3.867,6.143,3.867,10.752c0,3.347-0.564,6.091-1.689,8.232c-1.127,2.142-2.754,3.809-4.883,5
		s-4.783,1.787-7.959,1.787c-3.23,0-5.902-0.515-8.018-1.543c-2.117-1.028-3.832-2.656-5.146-4.883
		C275.168,434.412,274.512,431.625,274.512,428.279z M283.36,428.318c0,2.891,0.537,4.968,1.611,6.23s2.535,1.895,4.385,1.895
		c1.9,0,3.371-0.618,4.414-1.855c1.041-1.237,1.563-3.457,1.563-6.66c0-2.695-0.545-4.665-1.631-5.908
		c-1.088-1.243-2.563-1.865-4.424-1.865c-1.785,0-3.217,0.632-4.297,1.895C283.899,423.311,283.36,425.401,283.36,428.318z"/>
	<path fill="#0066FF" d="M307.403,433.103l8.418-0.527c0.182,1.367,0.553,2.409,1.113,3.125c0.91,1.159,2.213,1.738,3.906,1.738
		c1.262,0,2.236-0.296,2.92-0.889s1.025-1.279,1.025-2.061c0-0.742-0.326-1.406-0.977-1.992c-0.652-0.586-2.162-1.14-4.531-1.66
		c-3.881-0.872-6.648-2.031-8.301-3.477c-1.668-1.445-2.5-3.288-2.5-5.527c0-1.472,0.426-2.861,1.279-4.17
		c0.852-1.309,2.135-2.337,3.848-3.086c1.711-0.749,4.059-1.123,7.041-1.123c3.658,0,6.447,0.681,8.369,2.041
		c1.92,1.36,3.063,3.525,3.428,6.494l-8.34,0.488c-0.223-1.289-0.688-2.227-1.396-2.813c-0.711-0.586-1.689-0.879-2.939-0.879
		c-1.029,0-1.805,0.218-2.324,0.654c-0.521,0.437-0.781,0.967-0.781,1.592c0,0.456,0.215,0.866,0.645,1.23
		c0.416,0.378,1.406,0.729,2.969,1.055c3.867,0.833,6.637,1.677,8.311,2.529c1.672,0.853,2.891,1.911,3.652,3.174
		s1.143,2.676,1.143,4.238c0,1.836-0.508,3.528-1.523,5.078s-2.436,2.725-4.258,3.525c-1.824,0.801-4.121,1.201-6.895,1.201
		c-4.871,0-8.242-0.938-10.117-2.813S307.649,435.994,307.403,433.103z"/>
	<path fill="#0066FF" d="M2.832,461.943h11.636l4.487,17.422l4.455-17.422h11.629v28.633h-7.246V468.74l-5.583,21.836h-6.559
		l-5.573-21.836v21.836H2.832V461.943z"/>
	<path fill="#0066FF" d="M58.287,485.849H48.242l-1.396,4.727h-9.034l10.762-28.633h9.651l10.759,28.633h-9.265L58.287,485.849z
		 M56.451,479.658l-3.16-10.293l-3.127,10.293H56.451z"/>
	<path fill="#0066FF" d="M71.855,461.943h8.262l10.781,15.841v-15.841h8.34v28.633h-8.34l-10.723-15.722v15.722h-8.32V461.943z"/>
	<path fill="#0066FF" d="M103.105,461.943H130v7.07h-9.023v21.563h-8.848v-21.563h-9.023V461.943z"/>
	<path fill="#0066FF" d="M133.984,461.943h23.711v6.113h-14.844v4.551h13.77v5.84h-13.77v5.645h15.273v6.484h-24.141V461.943z"/>
	<path fill="#0066FF" d="M162.949,461.943h8.262l10.781,15.841v-15.841h8.34v28.633h-8.34l-10.723-15.722v15.722h-8.32V461.943z"/>
	<path fill="#0066FF" d="M196.563,461.943h8.867v28.633h-8.867V461.943z"/>
	<path fill="#0066FF" d="M211.68,461.943h11.635l4.488,17.422l4.455-17.422h11.629v28.633h-7.246V468.74l-5.584,21.836h-6.559
		l-5.572-21.836v21.836h-7.247V461.943z"/>
	<path fill="#0066FF" d="M249.883,461.943h8.867v28.633h-8.867V461.943z"/>
	<path fill="#0066FF" d="M265.079,461.943h23.711v6.113h-14.844v4.551h13.77v5.84h-13.77v5.645h15.273v6.484h-24.141V461.943z"/>
	<path fill="#0066FF" d="M294.043,461.943h8.262l10.781,15.841v-15.841h8.34v28.633h-8.34l-10.723-15.722v15.722h-8.32V461.943z"/>
	<path fill="#0066FF" d="M325.293,461.943h26.895v7.07h-9.023v21.563h-8.848v-21.563h-9.023V461.943z"/>
	<path fill="#0066FF" d="M353.711,476.279c0-4.675,1.301-8.313,3.906-10.918c2.604-2.604,6.23-3.906,10.879-3.906
		c4.766,0,8.438,1.279,11.016,3.838s3.867,6.143,3.867,10.752c0,3.347-0.564,6.091-1.689,8.232c-1.127,2.142-2.754,3.809-4.883,5
		s-4.783,1.787-7.959,1.787c-3.23,0-5.902-0.515-8.018-1.543c-2.117-1.028-3.832-2.656-5.146-4.883
		C354.368,482.412,353.711,479.625,353.711,476.279z M362.559,476.318c0,2.891,0.537,4.968,1.611,6.23s2.535,1.895,4.385,1.895
		c1.9,0,3.371-0.618,4.414-1.855c1.041-1.237,1.563-3.457,1.563-6.66c0-2.695-0.545-4.665-1.631-5.908
		c-1.088-1.243-2.563-1.865-4.424-1.865c-1.785,0-3.217,0.632-4.297,1.895C363.098,471.311,362.559,473.401,362.559,476.318z"/>
	<path fill="#0066FF" d="M386.602,481.103l8.418-0.527c0.182,1.367,0.553,2.409,1.113,3.125c0.91,1.159,2.213,1.738,3.906,1.738
		c1.262,0,2.236-0.296,2.92-0.889s1.025-1.279,1.025-2.061c0-0.742-0.326-1.406-0.977-1.992c-0.652-0.586-2.162-1.14-4.531-1.66
		c-3.881-0.872-6.648-2.031-8.301-3.477c-1.668-1.445-2.5-3.288-2.5-5.527c0-1.472,0.426-2.861,1.279-4.17
		c0.852-1.309,2.135-2.337,3.848-3.086c1.711-0.749,4.059-1.123,7.041-1.123c3.658,0,6.447,0.681,8.369,2.041
		c1.92,1.36,3.063,3.525,3.428,6.494l-8.34,0.488c-0.223-1.289-0.688-2.227-1.396-2.813c-0.711-0.586-1.689-0.879-2.939-0.879
		c-1.029,0-1.805,0.218-2.324,0.654c-0.521,0.437-0.781,0.967-0.781,1.592c0,0.456,0.215,0.866,0.645,1.23
		c0.416,0.378,1.406,0.729,2.969,1.055c3.867,0.833,6.637,1.677,8.311,2.529c1.672,0.853,2.891,1.911,3.652,3.174
		s1.143,2.676,1.143,4.238c0,1.836-0.508,3.528-1.523,5.078s-2.436,2.725-4.258,3.525c-1.824,0.801-4.121,1.201-6.895,1.201
		c-4.871,0-8.242-0.938-10.117-2.813S386.848,483.994,386.602,481.103z"/>
	<path fill="#0066FF" d="M93.076,509.943h8.867v28.633h-8.867V509.943z"/>
	<path fill="#0066FF" d="M108.35,509.943h8.262l10.781,15.841v-15.841h8.34v28.633h-8.34l-10.723-15.722v15.722h-8.32V509.943z"/>
	<path fill="#0066FF" d="M160.674,526.857l7.754,2.344c-0.521,2.175-1.341,3.991-2.461,5.449c-1.12,1.458-2.51,2.559-4.17,3.301
		s-3.773,1.113-6.338,1.113c-3.112,0-5.654-0.452-7.627-1.356s-3.675-2.495-5.107-4.772c-1.433-2.277-2.148-5.191-2.148-8.744
		c0-4.736,1.26-8.377,3.779-10.92c2.52-2.545,6.084-3.816,10.693-3.816c3.606,0,6.442,0.729,8.506,2.188
		c2.063,1.458,3.597,3.698,4.6,6.719l-7.813,1.738c-0.273-0.872-0.56-1.511-0.859-1.914c-0.495-0.677-1.101-1.198-1.816-1.563
		c-0.716-0.364-1.517-0.547-2.402-0.547c-2.005,0-3.542,0.807-4.609,2.419c-0.808,1.196-1.211,3.076-1.211,5.638
		c0,3.174,0.481,5.349,1.445,6.525c0.963,1.178,2.317,1.766,4.063,1.766c1.692,0,2.972-0.476,3.838-1.426
		C159.655,530.047,160.283,528.667,160.674,526.857z"/>
	<path fill="#0066FF" d="M172.725,509.943h8.848v21.582h13.809v7.051h-22.656V509.943z"/>
	<path fill="#0066FF" d="M217.002,509.943h8.828v17.059c0,1.692-0.264,3.289-0.791,4.792s-1.355,2.817-2.48,3.942
		c-1.127,1.126-2.309,1.916-3.545,2.372c-1.719,0.637-3.783,0.956-6.192,0.956c-1.394,0-2.914-0.098-4.561-0.293
		c-1.647-0.195-3.024-0.582-4.131-1.161c-1.107-0.579-2.119-1.402-3.037-2.469c-0.918-1.067-1.546-2.167-1.885-3.299
		c-0.547-1.821-0.82-3.435-0.82-4.841v-17.059h8.828v17.465c0,1.562,0.433,2.781,1.299,3.659c0.866,0.879,2.067,1.317,3.604,1.317
		c1.523,0,2.717-0.433,3.584-1.298c0.865-0.865,1.299-2.091,1.299-3.679V509.943z"/>
	<path fill="#0066FF" d="M232.042,509.943h8.867v28.633h-8.867V509.943z"/>
	<path fill="#0066FF" d="M247.374,509.943h13.145c2.59,0,4.684,0.352,6.279,1.055c1.594,0.703,2.912,1.712,3.955,3.027
		c1.041,1.315,1.797,2.845,2.266,4.59s0.703,3.594,0.703,5.547c0,3.06-0.35,5.433-1.045,7.119c-0.697,1.687-1.664,3.099-2.9,4.238
		c-1.238,1.14-2.566,1.897-3.984,2.275c-1.941,0.521-3.699,0.781-5.273,0.781h-13.145V509.943z M256.221,516.427v15.645h2.168
		c1.848,0,3.164-0.205,3.945-0.615s1.393-1.126,1.836-2.148c0.441-1.022,0.664-2.679,0.664-4.971c0-3.034-0.496-5.11-1.484-6.23
		c-0.99-1.12-2.631-1.68-4.922-1.68H256.221z"/>
	<path fill="#0066FF" d="M277.256,524.279c0-4.675,1.301-8.313,3.906-10.918c2.604-2.604,6.23-3.906,10.879-3.906
		c4.766,0,8.438,1.279,11.016,3.838s3.867,6.143,3.867,10.752c0,3.347-0.564,6.091-1.689,8.232c-1.127,2.142-2.754,3.809-4.883,5
		s-4.783,1.787-7.959,1.787c-3.23,0-5.902-0.515-8.018-1.543c-2.117-1.028-3.832-2.656-5.146-4.883
		C277.913,530.412,277.256,527.625,277.256,524.279z M286.104,524.318c0,2.891,0.537,4.968,1.611,6.23s2.535,1.895,4.385,1.895
		c1.9,0,3.371-0.618,4.414-1.855c1.041-1.237,1.563-3.457,1.563-6.66c0-2.695-0.545-4.665-1.631-5.908
		c-1.088-1.243-2.563-1.865-4.424-1.865c-1.785,0-3.217,0.632-4.297,1.895C286.643,519.311,286.104,521.401,286.104,524.318z"/>
	<path fill="#0066FF" d="M310.147,529.103l8.418-0.527c0.182,1.367,0.553,2.409,1.113,3.125c0.91,1.159,2.213,1.738,3.906,1.738
		c1.262,0,2.236-0.296,2.92-0.889s1.025-1.279,1.025-2.061c0-0.742-0.326-1.406-0.977-1.992c-0.652-0.586-2.162-1.14-4.531-1.66
		c-3.881-0.872-6.648-2.031-8.301-3.477c-1.668-1.445-2.5-3.288-2.5-5.527c0-1.472,0.426-2.861,1.279-4.17
		c0.852-1.309,2.135-2.337,3.848-3.086c1.711-0.749,4.059-1.123,7.041-1.123c3.658,0,6.447,0.681,8.369,2.041
		c1.92,1.36,3.063,3.525,3.428,6.494l-8.34,0.488c-0.223-1.289-0.688-2.227-1.396-2.813c-0.711-0.586-1.689-0.879-2.939-0.879
		c-1.029,0-1.805,0.218-2.324,0.654c-0.521,0.437-0.781,0.967-0.781,1.592c0,0.456,0.215,0.866,0.645,1.23
		c0.416,0.378,1.406,0.729,2.969,1.055c3.867,0.833,6.637,1.677,8.311,2.529c1.672,0.853,2.891,1.911,3.652,3.174
		s1.143,2.676,1.143,4.238c0,1.836-0.508,3.528-1.523,5.078s-2.436,2.725-4.258,3.525c-1.824,0.801-4.121,1.201-6.895,1.201
		c-4.871,0-8.242-0.938-10.117-2.813S310.393,531.994,310.147,529.103z"/>
</g>
</svg>
