<?xml version="1.0" encoding="utf-8"?>
<!-- Generator: Adobe Illustrator 16.0.0, SVG Export Plug-In . SVG Version: 6.00 Build 0)  -->
<!DOCTYPE svg PUBLIC "-//W3C//DTD SVG 1.1//EN" "http://www.w3.org/Graphics/SVG/1.1/DTD/svg11.dtd">
<svg version="1.1" id="Capa_1" xmlns="http://www.w3.org/2000/svg" xmlns:xlink="http://www.w3.org/1999/xlink" x="0px" y="0px"
	 width="383.942px" height="534.081px" viewBox="0 0 383.942 534.081" enable-background="new 0 0 383.942 534.081"
	 xml:space="preserve">
<g>
	<path fill-rule="evenodd" clip-rule="evenodd" fill="#0066FF" d="M0,136.32c0-12.872,0-25.745,0-38.617
		c3.262-5.7,8.4-9.715,13.07-14.072c4.344-4.053,8.708-8.082,12.821-12.36c7.638-7.946,16.011-15.124,23.729-22.975
		c2.632-2.677,5.759-2.987,9.188-2.99c10.248-0.01,9.034,0.983,9.12-9.158c0.021-2.475-0.03-4.951-0.002-7.425
		c0.026-2.332-1.043-3.371-3.355-3.39c-4.456-0.036-8.912,0.058-13.366-0.047c-4.598-0.107-5.425-0.913-5.522-5.445
		c-0.095-4.454-0.052-8.91-0.019-13.366c0.042-5.817,0.617-6.423,6.361-6.435c16.584-0.033,33.168-0.013,49.752-0.01
		c2.846,0.001,5.692-0.013,8.539,0.04c2.868,0.053,4.339,1.411,4.383,4.318c0.083,5.445,0.05,10.89,0.017,16.334
		c-0.019,3.051-1.441,4.535-4.528,4.562c-4.579,0.04-9.159,0.08-13.736,0.006c-2.834-0.046-4.052,1.095-3.992,3.948
		c0.086,4.082,0.067,8.168,0.005,12.251c-0.04,2.586,0.899,3.853,3.667,3.85c19.307-0.025,38.613-0.023,57.92-0.002
		c2.706,0.003,3.774-1.167,3.742-3.797c-0.049-4.083-0.079-8.17,0.013-12.251c0.063-2.807-1.039-4.064-3.929-3.999
		c-4.329,0.096-8.663,0.089-12.994-0.003c-4.402-0.094-5.231-0.892-5.338-5.219c-0.109-4.454-0.053-8.911-0.025-13.366
		c0.037-5.987,0.66-6.649,6.574-6.661c17.326-0.036,34.653-0.012,51.979-0.012c2.104,0,4.212-0.083,6.311,0.057
		c3.563,0.238,4.728,1.258,4.877,4.733c0.223,5.192,0.217,10.397,0.003,15.589c-0.143,3.484-1.321,4.632-4.817,4.818
		c-4.449,0.236-8.909,0.037-13.363,0.093c-4.416,0.055-4.698,0.32-4.742,4.579c-0.037,3.588-0.043,7.178,0.002,10.767
		c0.055,4.246,0.406,4.636,4.725,4.646c16.707,0.041,33.415,0.016,50.123,0.015c2.351,0,4.702-0.011,7.054-0.021
		c2.307-0.009,3.379-1.083,3.386-3.394c0.012-4.455-0.018-8.911,0.013-13.365c0.017-2.444-1.244-3.228-3.473-3.229
		c-4.455-0.002-8.911,0.072-13.365-0.034s-5.306-0.896-5.396-5.173c-0.108-5.073-0.123-10.15,0.009-15.222
		c0.1-3.814,0.914-4.772,4.565-4.794c19.926-0.123,39.852-0.132,59.775,0.003c4.094,0.028,5.276,1.312,5.396,5.424
		c0.149,5.071,0.059,10.147,0.025,15.221c-0.021,3.057-1.435,4.533-4.526,4.549c-4.579,0.023-9.16,0.085-13.736-0.006
		c-2.832-0.057-4.064,1.048-3.999,3.918c0.093,4.082,0.089,8.169,0.002,12.251c-0.061,2.882,1.228,4.082,4.023,3.874
		c0.49-0.037-0.124-0.012,0.371-0.005c12.55,0.162,9.433-1.426,19.201,8.292c13.073,13.006,26.043,26.115,39.162,39.074
		c2.839,2.804,4.223,5.816,4.147,9.848c-0.176,9.526-0.028,19.058-0.077,28.587c-0.01,1.938,0.314,4.019-1.369,5.578
		c-1.706,0.981-3.592,0.823-5.436,0.824c-109.094,0.015-218.188,0.015-327.282-0.003C3.709,137.524,1.665,137.767,0,136.32z"/>
	<path fill-rule="evenodd" clip-rule="evenodd" fill="#0066FF" d="M0,265.539c0-35.399,0-70.798,0-106.197
		c1.322-1.178,2.96-1.139,4.566-1.142c12.499-0.026,24.997-0.054,37.495,0.01c4.991,0.025,5.815,0.855,5.855,5.872
		c0.081,10.271,0.012,20.542,0.03,30.813c0.036,20.87,14.828,41.779,34.463,49.008c7.9,2.909,16.033,4.126,24.378,4.129
		c74.742,0.02,149.485,0.011,224.228,0.012c8.666,0,8.693,0.006,8.652,8.526c-0.014,2.837,0.287,5.692-0.299,8.51
		c-0.623,1.687-1.964,2.822-3.182,4.042c-14.945,14.961-29.949,29.864-44.813,44.908c-2.744,2.778-5.688,3.87-9.544,3.866
		c-74.325-0.069-148.652-0.073-222.978,0.004c-4.27,0.004-7.569-1.251-10.536-4.329c-13.386-13.89-27.888-26.651-41.241-40.577
		C4.705,270.521,1.363,268.965,0,265.539z"/>
	<path fill-rule="evenodd" clip-rule="evenodd" fill="#0066FF" d="M383.942,271.48c-6.531-0.005-13.063-0.104-19.592,0.041
		c-2.212,0.05-2.982-0.431-2.903-2.802c0.191-5.662,0.063-11.335,0.062-17.003c-0.001-1.333,0.332-2.792-1.882-2.712
		c-6.754,0.244-13.523-0.375-20.272,0.332c-0.991-5.379-0.172-10.811-0.464-16.209c-0.112-2.074,0.398-4.183-0.331-6.225
		c1.088-2.031,3.08-1.81,4.884-1.856c4.44-0.116,8.884-0.084,13.324-0.031c2.684,0.033,3.729-1.118,3.728-3.767
		c-0.016-19.001-0.015-38.002,0-57.002c0.002-2.687-1.11-3.767-3.762-3.738c-4.439,0.048-8.884,0.083-13.324-0.031
		c-1.809-0.046-3.79,0.153-4.902-1.843c0.679-7.458,0.591-14.917,0.052-22.378c6.896,0.053,13.794,0.028,20.687,0.205
		c2.207,0.056,2.309-1.018,2.289-2.703c-0.066-5.669,0.107-11.343-0.088-17.006c-0.083-2.383,0.697-2.849,2.901-2.796
		c6.528,0.156,13.063,0.075,19.595,0.087C383.942,166.521,383.942,219,383.942,271.48z"/>
	<path fill-rule="evenodd" clip-rule="evenodd" fill="#0066FF" d="M300.777,226.29c-16.188-3.206-25.975-12.819-29.114-29.086
		c-0.501-11.98-0.057-23.966-0.241-35.948c-0.028-1.825,0.714-2.302,2.42-2.299c20.893,0.039,41.785,0.043,62.678-0.005
		c2.044-0.005,2.934,0.884,3.185,2.746c0.133,0.983,0.149,1.972,0.149,2.96c0.011,18.667,0.01,37.334,0,56.002
		c0,1.236,0.03,2.479-0.262,3.691c-0.313,1.304-0.93,2.22-2.503,2.197C324.985,226.38,312.878,226.85,300.777,226.29z"/>
	<path fill-rule="evenodd" clip-rule="evenodd" fill="#0066FF" d="M125.311,226.526c-10.542-0.524-20.337,1.022-29.948-1.012
		c-15.294-3.238-26.068-16.494-26.29-32.042c-0.151-10.626,0.019-21.255-0.101-31.882c-0.024-2.167,0.66-2.633,2.712-2.619
		c13.099,0.091,26.199,0.113,39.297-0.011c2.512-0.024,3.075,0.812,3.041,3.155c-0.125,8.401,0.134,16.811-0.09,25.208
		C113.56,201.271,116.333,214.273,125.311,226.526z"/>
	<path fill-rule="evenodd" clip-rule="evenodd" fill="#0066FF" d="M192.727,226.566c-12.018-0.941-23.525,1.722-34.637-2.446
		c-12.581-4.719-21.212-16.667-21.465-30.084c-0.203-10.748,0.006-21.503-0.146-32.253c-0.034-2.367,0.716-2.832,2.918-2.815
		c12.975,0.101,25.953,0.137,38.927-0.02c2.77-0.033,3.137,0.956,3.15,3.385c0.066,11.859-0.551,23.731,0.34,35.577
		C182.588,208.209,186.35,217.469,192.727,226.566z"/>
	<path fill-rule="evenodd" clip-rule="evenodd" fill="#0066FF" d="M260.286,226.534c-10.758-0.584-20.816,1.072-30.683-1.145
		c-14.333-3.221-25.009-16.131-25.429-30.828c-0.314-10.991-0.081-21.997-0.179-32.996c-0.017-1.824,0.328-2.606,2.403-2.592
		c13.348,0.09,26.696,0.104,40.043-0.01c2.351-0.02,2.506,1.002,2.49,2.854c-0.069,8.404,0.151,16.813-0.071,25.211
		C248.488,201.096,251.281,214.215,260.286,226.534z"/>
	<path fill-rule="evenodd" clip-rule="evenodd" fill="#0066FF" d="M300.777,226.29c11.627,0.045,23.254,0.016,34.879,0.194
		c2.534,0.039,3.329-0.535,3.313-3.209c-0.119-20.413-0.106-40.827-0.01-61.24c0.012-2.439-0.676-3.08-3.087-3.068
		c-20.414,0.093-40.828,0.105-61.241-0.011c-2.71-0.016-3.241,0.878-3.203,3.37c0.181,11.625,0.174,23.252,0.234,34.878
		c-0.952-1.053-0.584-2.347-0.588-3.542c-0.026-10.364,0.08-20.729-0.075-31.091c-0.045-2.949,0.627-4.066,3.843-4.043
		c21.221,0.149,42.442,0.095,63.664,0.107c6.531,0.75,13.086,0.253,19.627,0.286c2.395,0.012,3.46,0.374,3.443,3.177
		c-0.125,20.408-0.104,40.818-0.018,61.226c0.009,2.371-0.535,3.134-3.055,3.16c-6.646,0.068-13.32-0.69-19.945,0.419
		c-11.424,0.007-22.848,0.024-34.271,0.006C303.101,226.906,301.808,227.28,300.777,226.29z"/>
</g>
<g>
	<path fill="#0066FF" d="M32.43,349.182h9.249l6.444,20.605l6.362-20.605h8.98l-10.632,28.633h-9.59L32.43,349.182z"/>
	<path fill="#0066FF" d="M66.336,349.182h23.711v6.113H75.204v4.551h13.77v5.84h-13.77v5.645h15.273v6.484H66.336V349.182z"/>
	<path fill="#0066FF" d="M95.282,349.182h8.848v10.02h9.668v-10.02h8.887v28.633h-8.887v-11.582h-9.668v11.582h-8.848V349.182z"/>
	<path fill="#0066FF" d="M128.915,349.182h8.867v28.633h-8.867V349.182z"/>
	<path fill="#0066FF" d="M163.192,366.096l7.754,2.344c-0.521,2.175-1.341,3.991-2.461,5.449c-1.12,1.458-2.51,2.559-4.17,3.301
		s-3.773,1.113-6.338,1.113c-3.112,0-5.654-0.452-7.627-1.356s-3.675-2.495-5.107-4.772c-1.433-2.277-2.148-5.191-2.148-8.744
		c0-4.736,1.26-8.377,3.779-10.92c2.52-2.545,6.084-3.816,10.693-3.816c3.606,0,6.442,0.729,8.506,2.188
		c2.063,1.458,3.597,3.698,4.6,6.719l-7.813,1.738c-0.273-0.872-0.56-1.511-0.859-1.914c-0.495-0.677-1.101-1.198-1.816-1.563
		c-0.716-0.364-1.517-0.547-2.402-0.547c-2.005,0-3.542,0.807-4.609,2.419c-0.808,1.196-1.211,3.076-1.211,5.638
		c0,3.174,0.481,5.349,1.445,6.525c0.963,1.178,2.317,1.766,4.063,1.766c1.692,0,2.972-0.476,3.838-1.426
		C162.173,369.287,162.801,367.906,163.192,366.096z"/>
	<path fill="#0066FF" d="M193.875,349.182h8.828v17.059c0,1.692-0.264,3.289-0.791,4.792s-1.354,2.817-2.48,3.942
		c-1.126,1.126-2.308,1.916-3.545,2.372c-1.719,0.637-3.782,0.956-6.191,0.956c-1.393,0-2.913-0.098-4.561-0.293
		c-1.646-0.195-3.023-0.582-4.131-1.161c-1.106-0.579-2.119-1.402-3.037-2.469c-0.918-1.067-1.546-2.167-1.885-3.299
		c-0.547-1.821-0.82-3.435-0.82-4.841v-17.059h8.828v17.465c0,1.562,0.434,2.781,1.299,3.659c0.866,0.879,2.067,1.317,3.604,1.317
		c1.523,0,2.719-0.433,3.584-1.298c0.866-0.865,1.299-2.091,1.299-3.679V349.182z"/>
	<path fill="#0066FF" d="M208.563,349.182h8.848v21.582h13.809v7.051h-22.656V349.182z"/>
	<path fill="#0066FF" d="M233.445,363.518c0-4.675,1.303-8.313,3.906-10.918c2.604-2.604,6.23-3.906,10.879-3.906
		c4.766,0,8.438,1.279,11.016,3.838s3.867,6.143,3.867,10.752c0,3.347-0.563,6.091-1.689,8.232c-1.126,2.142-2.754,3.809-4.883,5
		s-4.781,1.787-7.959,1.787c-3.229,0-5.901-0.515-8.018-1.543c-2.115-1.028-3.831-2.656-5.146-4.883
		C234.104,369.651,233.445,366.865,233.445,363.518z M242.293,363.557c0,2.891,0.537,4.968,1.611,6.23s2.536,1.895,4.385,1.895
		c1.901,0,3.373-0.618,4.414-1.855c1.042-1.237,1.563-3.457,1.563-6.66c0-2.695-0.543-4.665-1.631-5.908
		c-1.087-1.243-2.562-1.865-4.424-1.865c-1.783,0-3.216,0.632-4.297,1.895C242.834,358.55,242.293,360.64,242.293,363.557z"/>
	<path fill="#0066FF" d="M281.336,349.182h13.145c2.592,0,4.685,0.352,6.279,1.055c1.596,0.703,2.914,1.712,3.955,3.027
		c1.042,1.315,1.797,2.845,2.266,4.59s0.703,3.594,0.703,5.547c0,3.06-0.348,5.433-1.045,7.119c-0.696,1.687-1.663,3.099-2.9,4.238
		c-1.236,1.14-2.564,1.897-3.984,2.275c-1.939,0.521-3.697,0.781-5.273,0.781h-13.145V349.182z M290.184,355.667v15.645h2.168
		c1.85,0,3.164-0.205,3.945-0.615s1.394-1.126,1.836-2.148c0.443-1.022,0.664-2.679,0.664-4.971c0-3.034-0.494-5.11-1.484-6.23
		c-0.989-1.12-2.63-1.68-4.922-1.68H290.184z"/>
	<path fill="#0066FF" d="M312.313,349.182h23.711v6.113H321.18v4.551h13.77v5.84h-13.77v5.645h15.273v6.484h-24.141V349.182z"/>
	<path fill="#0066FF" d="M37.821,416.342l8.418-0.527c0.182,1.367,0.553,2.409,1.113,3.125c0.911,1.159,2.213,1.738,3.906,1.738
		c1.263,0,2.236-0.296,2.92-0.889s1.025-1.279,1.025-2.061c0-0.742-0.326-1.406-0.977-1.992c-0.651-0.586-2.162-1.14-4.531-1.66
		c-3.88-0.872-6.647-2.031-8.301-3.477c-1.667-1.445-2.5-3.288-2.5-5.527c0-1.472,0.426-2.861,1.279-4.17
		c0.853-1.309,2.135-2.337,3.848-3.086c1.712-0.749,4.059-1.123,7.041-1.123c3.659,0,6.448,0.681,8.369,2.041
		c1.92,1.36,3.063,3.525,3.428,6.494l-8.34,0.488c-0.222-1.289-0.687-2.227-1.396-2.813c-0.71-0.586-1.689-0.879-2.939-0.879
		c-1.029,0-1.804,0.218-2.324,0.654c-0.521,0.437-0.781,0.967-0.781,1.592c0,0.456,0.215,0.866,0.645,1.23
		c0.417,0.378,1.406,0.729,2.969,1.055c3.867,0.833,6.637,1.677,8.311,2.529c1.673,0.853,2.891,1.911,3.652,3.174
		s1.143,2.676,1.143,4.238c0,1.836-0.508,3.528-1.523,5.078s-2.435,2.725-4.258,3.525c-1.823,0.801-4.121,1.201-6.895,1.201
		c-4.87,0-8.242-0.938-10.117-2.813S38.068,419.233,37.821,416.342z"/>
	<path fill="#0066FF" d="M86.883,397.182h8.828v17.059c0,1.692-0.264,3.289-0.791,4.792s-1.354,2.817-2.48,3.942
		c-1.126,1.126-2.308,1.916-3.545,2.372c-1.719,0.637-3.783,0.956-6.191,0.956c-1.394,0-2.914-0.098-4.561-0.293
		c-1.647-0.195-3.024-0.582-4.131-1.161c-1.107-0.579-2.119-1.402-3.037-2.469c-0.918-1.067-1.546-2.167-1.885-3.299
		c-0.547-1.821-0.82-3.435-0.82-4.841v-17.059h8.828v17.465c0,1.562,0.433,2.781,1.299,3.659c0.866,0.879,2.067,1.317,3.604,1.317
		c1.523,0,2.718-0.433,3.584-1.298c0.866-0.865,1.299-2.091,1.299-3.679V397.182z"/>
	<path fill="#0066FF" d="M100.028,416.342l8.418-0.527c0.182,1.367,0.553,2.409,1.113,3.125c0.911,1.159,2.213,1.738,3.906,1.738
		c1.263,0,2.236-0.296,2.92-0.889s1.025-1.279,1.025-2.061c0-0.742-0.326-1.406-0.977-1.992c-0.651-0.586-2.162-1.14-4.531-1.66
		c-3.88-0.872-6.647-2.031-8.301-3.477c-1.667-1.445-2.5-3.288-2.5-5.527c0-1.472,0.426-2.861,1.279-4.17
		c0.853-1.309,2.135-2.337,3.848-3.086c1.712-0.749,4.059-1.123,7.041-1.123c3.659,0,6.448,0.681,8.369,2.041
		c1.92,1.36,3.063,3.525,3.428,6.494l-8.34,0.488c-0.222-1.289-0.687-2.227-1.396-2.813c-0.71-0.586-1.689-0.879-2.939-0.879
		c-1.029,0-1.804,0.218-2.324,0.654c-0.521,0.437-0.781,0.967-0.781,1.592c0,0.456,0.215,0.866,0.645,1.23
		c0.417,0.378,1.406,0.729,2.969,1.055c3.867,0.833,6.637,1.677,8.311,2.529c1.673,0.853,2.891,1.911,3.652,3.174
		s1.143,2.676,1.143,4.238c0,1.836-0.508,3.528-1.523,5.078s-2.435,2.725-4.258,3.525c-1.823,0.801-4.121,1.201-6.895,1.201
		c-4.87,0-8.242-0.938-10.117-2.813S100.275,419.233,100.028,416.342z"/>
	<path fill="#0066FF" d="M128.446,397.182h26.895v7.07h-9.023v21.563h-8.848v-21.563h-9.023V397.182z"/>
	<path fill="#0066FF" d="M159.696,397.182h8.867v28.633h-8.867V397.182z"/>
	<path fill="#0066FF" d="M172.899,397.182h26.894v7.07h-9.023v21.563h-8.848v-21.563h-9.023V397.182z"/>
	<path fill="#0066FF" d="M222.43,397.182h8.828v17.059c0,1.692-0.264,3.289-0.791,4.792s-1.354,2.817-2.48,3.942
		c-1.126,1.126-2.308,1.916-3.545,2.372c-1.719,0.637-3.782,0.956-6.191,0.956c-1.393,0-2.913-0.098-4.561-0.293
		c-1.646-0.195-3.023-0.582-4.131-1.161c-1.106-0.579-2.119-1.402-3.037-2.469c-0.918-1.067-1.546-2.167-1.885-3.299
		c-0.547-1.821-0.82-3.435-0.82-4.841v-17.059h8.828v17.465c0,1.562,0.434,2.781,1.299,3.659c0.866,0.879,2.067,1.317,3.604,1.317
		c1.523,0,2.719-0.433,3.584-1.298c0.866-0.865,1.299-2.091,1.299-3.679V397.182z"/>
	<path fill="#0066FF" d="M256.18,414.096l7.754,2.344c-0.521,2.175-1.341,3.991-2.461,5.449c-1.119,1.458-2.51,2.559-4.17,3.301
		s-3.772,1.113-6.338,1.113c-3.111,0-5.654-0.452-7.627-1.356s-3.675-2.495-5.107-4.772c-1.432-2.277-2.148-5.191-2.148-8.744
		c0-4.736,1.26-8.377,3.779-10.92c2.52-2.545,6.084-3.816,10.693-3.816c3.607,0,6.442,0.729,8.506,2.188
		c2.064,1.458,3.598,3.698,4.6,6.719l-7.813,1.738c-0.273-0.872-0.56-1.511-0.859-1.914c-0.494-0.677-1.1-1.198-1.816-1.563
		c-0.716-0.364-1.517-0.547-2.402-0.547c-2.005,0-3.541,0.807-4.609,2.419c-0.807,1.196-1.211,3.076-1.211,5.638
		c0,3.174,0.482,5.349,1.445,6.525c0.964,1.178,2.318,1.766,4.063,1.766c1.693,0,2.973-0.476,3.838-1.426
		C255.161,417.287,255.789,415.906,256.18,414.096z"/>
	<path fill="#0066FF" d="M268.582,397.182h8.867v28.633h-8.867V397.182z"/>
	<path fill="#0066FF" d="M282.684,411.518c0-4.675,1.303-8.313,3.906-10.918c2.604-2.604,6.23-3.906,10.879-3.906
		c4.766,0,8.438,1.279,11.016,3.838s3.867,6.143,3.867,10.752c0,3.347-0.563,6.091-1.689,8.232c-1.126,2.142-2.754,3.809-4.883,5
		s-4.781,1.787-7.959,1.787c-3.229,0-5.901-0.515-8.018-1.543c-2.115-1.028-3.831-2.656-5.146-4.883
		C283.342,417.651,282.684,414.865,282.684,411.518z M291.531,411.557c0,2.891,0.537,4.968,1.611,6.23s2.536,1.895,4.385,1.895
		c1.901,0,3.373-0.618,4.414-1.855c1.042-1.237,1.563-3.457,1.563-6.66c0-2.695-0.543-4.665-1.631-5.908
		c-1.087-1.243-2.562-1.865-4.424-1.865c-1.783,0-3.216,0.632-4.297,1.895C292.072,406.55,291.531,408.64,291.531,411.557z"/>
	<path fill="#0066FF" d="M317.176,397.182h8.262l10.781,15.841v-15.841h8.34v28.633h-8.34l-10.723-15.722v15.722h-8.32V397.182z"/>
	<path fill="#0066FF" d="M57.127,445.182h23.711v6.113H65.995v4.551h13.77v5.84h-13.77v5.645h15.273v6.484H57.127V445.182z"/>
	<path fill="#0066FF" d="M86.092,445.182h8.262l10.781,15.841v-15.841h8.34v28.633h-8.34l-10.723-15.722v15.722h-8.32V445.182z"/>
	<path fill="#0066FF" d="M132.596,445.182h11.636l4.487,17.422l4.455-17.422h11.629v28.633h-7.246v-21.836l-5.583,21.836h-6.559
		l-5.573-21.836v21.836h-7.246V445.182z"/>
	<path fill="#0066FF" d="M188.051,469.088h-10.045l-1.396,4.727h-9.034l10.761-28.633h9.651l10.759,28.633h-9.265L188.051,469.088z
		 M186.215,462.897l-3.16-10.293l-3.127,10.293H186.215z"/>
	<path fill="#0066FF" d="M199.607,445.182h9.746l5.068,8.809l4.932-8.809h9.648l-8.912,13.867l9.752,14.766H219.9l-5.654-9.199
		l-5.654,9.199h-9.883l9.877-14.922L199.607,445.182z"/>
	<path fill="#0066FF" d="M233.025,445.182h8.867v28.633h-8.867V445.182z"/>
	<path fill="#0066FF" d="M248.143,445.182h11.637l4.486,17.422l4.455-17.422h11.629v28.633h-7.246v-21.836l-5.582,21.836h-6.56
		l-5.573-21.836v21.836h-7.246V445.182z"/>
	<path fill="#0066FF" d="M284.881,459.518c0-4.675,1.303-8.313,3.906-10.918c2.604-2.604,6.23-3.906,10.879-3.906
		c4.766,0,8.438,1.279,11.016,3.838s3.867,6.143,3.867,10.752c0,3.347-0.563,6.091-1.689,8.232c-1.126,2.142-2.754,3.809-4.883,5
		s-4.781,1.787-7.959,1.787c-3.229,0-5.901-0.515-8.018-1.543c-2.115-1.028-3.831-2.656-5.146-4.883
		C285.539,465.651,284.881,462.865,284.881,459.518z M293.729,459.557c0,2.891,0.537,4.968,1.611,6.23s2.536,1.895,4.385,1.895
		c1.901,0,3.373-0.618,4.414-1.855c1.042-1.237,1.563-3.457,1.563-6.66c0-2.695-0.543-4.665-1.631-5.908
		c-1.087-1.243-2.562-1.865-4.424-1.865c-1.783,0-3.216,0.632-4.297,1.895C294.27,454.55,293.729,456.64,293.729,459.557z"/>
	<path fill="#0066FF" d="M95.057,516.463H80.565v-6.543l14.492-17.227h6.934v17.598h3.594v6.172h-3.594v5.352h-6.934V516.463z
		 M95.057,510.292v-9.011l-7.657,9.011H95.057z"/>
	<path fill="#0066FF" d="M112.85,506.424c-1.25-0.664-2.162-1.406-2.734-2.227c-0.781-1.12-1.172-2.409-1.172-3.867
		c0-2.396,1.126-4.355,3.379-5.879c1.758-1.172,4.082-1.758,6.973-1.758c3.828,0,6.657,0.729,8.486,2.188
		c1.829,1.458,2.744,3.294,2.744,5.508c0,1.289-0.365,2.493-1.094,3.613c-0.547,0.833-1.406,1.641-2.578,2.422
		c1.549,0.742,2.705,1.726,3.467,2.949s1.143,2.578,1.143,4.063c0,1.433-0.329,2.771-0.986,4.014
		c-0.658,1.243-1.465,2.204-2.422,2.881s-2.148,1.175-3.574,1.494s-2.946,0.479-4.561,0.479c-3.034,0-5.352-0.358-6.953-1.074
		s-2.819-1.771-3.652-3.164c-0.833-1.394-1.25-2.949-1.25-4.668c0-1.68,0.391-3.103,1.172-4.268S111.222,507.062,112.85,506.424z
		 M115.995,513.124c0,1.263,0.384,2.295,1.152,3.096c0.768,0.801,1.647,1.201,2.637,1.201c0.95,0,1.803-0.407,2.559-1.221
		c0.755-0.813,1.133-1.846,1.133-3.096c0-1.263-0.381-2.298-1.143-3.105s-1.644-1.211-2.646-1.211c-0.99,0-1.853,0.391-2.588,1.172
		C116.362,510.741,115.995,511.795,115.995,513.124z M116.424,500.799c0,0.989,0.309,1.787,0.928,2.393
		c0.618,0.605,1.442,0.908,2.471,0.908c0.911,0,1.66-0.3,2.246-0.898s0.879-1.374,0.879-2.324c0-0.989-0.306-1.794-0.918-2.412
		c-0.612-0.618-1.394-0.928-2.344-0.928c-0.964,0-1.748,0.303-2.354,0.908S116.424,499.835,116.424,500.799z"/>
	<path fill="#0066FF" d="M149.413,493.182h8.848v10.02h9.668v-10.02h8.886v28.633h-8.886v-11.582h-9.668v11.582h-8.848V493.182z"/>
	<path fill="#0066FF" d="M181.58,507.518c0-4.675,1.303-8.313,3.906-10.918c2.604-2.604,6.23-3.906,10.879-3.906
		c4.766,0,8.438,1.279,11.016,3.838s3.867,6.143,3.867,10.752c0,3.347-0.563,6.091-1.689,8.232c-1.126,2.142-2.754,3.809-4.883,5
		s-4.781,1.787-7.959,1.787c-3.229,0-5.901-0.515-8.018-1.543c-2.115-1.028-3.831-2.656-5.146-4.883
		C182.238,513.651,181.58,510.865,181.58,507.518z M190.428,507.557c0,2.891,0.537,4.968,1.611,6.23s2.536,1.895,4.385,1.895
		c1.901,0,3.373-0.618,4.414-1.855c1.042-1.237,1.563-3.457,1.563-6.66c0-2.695-0.543-4.665-1.631-5.908
		c-1.087-1.243-2.562-1.865-4.424-1.865c-1.783,0-3.216,0.632-4.297,1.895C190.969,502.55,190.428,504.64,190.428,507.557z"/>
	<path fill="#0066FF" d="M216.131,521.815v-28.633h14.746c2.734,0,4.824,0.234,6.27,0.703s2.611,1.338,3.496,2.607
		c0.886,1.27,1.328,2.815,1.328,4.639c0,1.589-0.338,2.959-1.016,4.111s-1.609,2.087-2.795,2.803
		c-0.756,0.456-1.791,0.833-3.107,1.133c1.055,0.353,1.822,0.704,2.304,1.056c0.325,0.234,0.797,0.736,1.415,1.505
		c0.617,0.77,1.031,1.362,1.239,1.779l4.284,8.297h-9.996l-4.73-8.75c-0.599-1.133-1.133-1.868-1.602-2.207
		c-0.638-0.442-1.36-0.664-2.168-0.664h-0.781v11.621H216.131z M225.018,504.784h3.73c0.404,0,1.186-0.13,2.344-0.391
		c0.586-0.117,1.064-0.417,1.436-0.898s0.557-1.035,0.557-1.66c0-0.925-0.293-1.634-0.879-2.129s-1.686-0.742-3.301-0.742h-3.887
		V504.784z"/>
	<path fill="#0066FF" d="M264.73,517.088h-10.045l-1.396,4.727h-9.034l10.762-28.633h9.651l10.759,28.633h-9.265L264.73,517.088z
		 M262.895,510.897l-3.16-10.293l-3.127,10.293H262.895z"/>
	<path fill="#0066FF" d="M276.697,512.342l8.418-0.527c0.183,1.367,0.554,2.409,1.113,3.125c0.912,1.159,2.214,1.738,3.906,1.738
		c1.264,0,2.236-0.296,2.92-0.889s1.025-1.279,1.025-2.061c0-0.742-0.325-1.406-0.977-1.992c-0.65-0.586-2.161-1.14-4.531-1.66
		c-3.88-0.872-6.646-2.031-8.301-3.477c-1.666-1.445-2.5-3.288-2.5-5.527c0-1.472,0.427-2.861,1.279-4.17
		c0.854-1.309,2.136-2.337,3.848-3.086c1.713-0.749,4.06-1.123,7.041-1.123c3.659,0,6.449,0.681,8.369,2.041
		c1.921,1.36,3.063,3.525,3.428,6.494l-8.34,0.488c-0.221-1.289-0.687-2.227-1.396-2.813c-0.709-0.586-1.689-0.879-2.939-0.879
		c-1.028,0-1.803,0.218-2.324,0.654c-0.521,0.437-0.781,0.967-0.781,1.592c0,0.456,0.215,0.866,0.645,1.23
		c0.417,0.378,1.406,0.729,2.969,1.055c3.867,0.833,6.638,1.677,8.311,2.529c1.674,0.853,2.891,1.911,3.652,3.174
		s1.143,2.676,1.143,4.238c0,1.836-0.508,3.528-1.523,5.078s-2.435,2.725-4.258,3.525c-1.822,0.801-4.121,1.201-6.895,1.201
		c-4.869,0-8.242-0.938-10.117-2.813S276.945,515.233,276.697,512.342z"/>
</g>
</svg>
